<?xml version="1.0" encoding="utf-8" standalone="no"?><!DOCTYPE svg PUBLIC "-//W3C//DTD SVG 20010904//EN" "http://www.w3.org/TR/2001/REC-SVG-20010904/DTD/svg10.dtd"><svg xmlns="http://www.w3.org/2000/svg" width="1693" height="3390" xmlns:xlink="http://www.w3.org/1999/xlink"><source><![CDATA[Created with Raphaël 2.1.2开始读入子句的数量读入指定数量子句，并用指定格式存储输出用户输入的所有子句while(未生成空子句且有新子句生成)i=0for(i < 子句的数目)j=0for(j < 子句的数目)对第i和第j个子句进行归结判断是否生成新子句输出子句生成过程相关信息输出该新子句判断是否生成了空子句循环条件不再满足结束将新子句加入子句集中对该子句进行结束判断是否只有一条新子句该子句有互补子句输出空子句生成过程相关信息输出空子句“[]”j++i++yesnoyesnoyesnoyesnoyesnoyesnoyesno]]></source><desc style="-webkit-tap-highlight-color: rgba(0, 0, 0, 0);">Created with Raphaël 2.1.2</desc><defs style="-webkit-tap-highlight-color: rgba(0, 0, 0, 0);"><path stroke-linecap="round" d="M5,0 0,2.5 5,5z" id="raphael-marker-block-obj37" style="-webkit-tap-highlight-color: rgba(0, 0, 0, 0);"></path><marker id="raphael-marker-endblock33-obj38" markerHeight="3" markerWidth="3" orient="auto" refX="1.5" refY="1.5" style="-webkit-tap-highlight-color: rgba(0, 0, 0, 0);"><use xlink:href="#raphael-marker-block-obj37" transform="rotate(180 1.5 1.5) scale(0.6,0.6)" stroke-width="1.6667" fill="black" stroke="none" style="-webkit-tap-highlight-color: rgba(0, 0, 0, 0);"></use></marker></defs><rect x="0" y="0" width="53.15625" height="38.171875" r="20" rx="20" ry="20" fill="#ffffff" stroke="#000000" style="-webkit-tap-highlight-color: rgba(0, 0, 0, 0);" stroke-width="2" class="flowchart" id="start" transform="matrix(1,0,0,1,181.4453,86.9258)"></rect><text x="10" y="19.0859375" text-anchor="start" font="10px &quot;Arial&quot;" stroke="none" fill="#000000" style="-webkit-tap-highlight-color: rgba(0, 0, 0, 0); text-anchor: start; font: 15px Arial;" id="startt" class="flowchartt" font-size="15px" transform="matrix(1,0,0,1,181.4453,86.9258)" stroke-width="1"><tspan dy="5.046875" style="-webkit-tap-highlight-color: rgba(0, 0, 0, 0);">开始</tspan></text><path fill="#ffffff" stroke="#000000" d="M10,19.0859375L0,38.171875L148.078125,38.171875L168.078125,0L20,0L10,19.0859375" stroke-width="2" id="in0" class="flowchart" style="-webkit-tap-highlight-color: rgba(0, 0, 0, 0);" transform="matrix(1,0,0,1,123.9844,262.0234)"></path><text x="30" y="19.0859375" text-anchor="start" font="10px &quot;Arial&quot;" stroke="none" fill="#000000" style="-webkit-tap-highlight-color: rgba(0, 0, 0, 0); text-anchor: start; font: 15px Arial;" id="in0t" class="flowchartt" font-size="15px" transform="matrix(1,0,0,1,123.9844,262.0234)" stroke-width="1"><tspan dy="5.046875" style="-webkit-tap-highlight-color: rgba(0, 0, 0, 0);">读入子句的数量</tspan></text><path fill="#ffffff" stroke="#000000" d="M10,19.0859375L0,38.171875L297.9375,38.171875L317.9375,0L20,0L10,19.0859375" stroke-width="2" id="in1" class="flowchart" style="-webkit-tap-highlight-color: rgba(0, 0, 0, 0);" transform="matrix(1,0,0,1,49.0547,437.1211)"></path><text x="30" y="19.0859375" text-anchor="start" font="10px &quot;Arial&quot;" stroke="none" fill="#000000" style="-webkit-tap-highlight-color: rgba(0, 0, 0, 0); text-anchor: start; font: 15px Arial;" id="in1t" class="flowchartt" font-size="15px" transform="matrix(1,0,0,1,49.0547,437.1211)" stroke-width="1"><tspan dy="5.046875" style="-webkit-tap-highlight-color: rgba(0, 0, 0, 0);">读入指定数量子句，并用指定格式存储</tspan></text><path fill="#ffffff" stroke="#000000" d="M10,19.0859375L0,38.171875L206.875,38.171875L226.875,0L20,0L10,19.0859375" stroke-width="2" id="out1" class="flowchart" style="-webkit-tap-highlight-color: rgba(0, 0, 0, 0);" transform="matrix(1,0,0,1,94.5859,612.2188)"></path><text x="30" y="19.0859375" text-anchor="start" font="10px &quot;Arial&quot;" stroke="none" fill="#000000" style="-webkit-tap-highlight-color: rgba(0, 0, 0, 0); text-anchor: start; font: 15px Arial;" id="out1t" class="flowchartt" font-size="15px" transform="matrix(1,0,0,1,94.5859,612.2188)" stroke-width="1"><tspan dy="5.046875" style="-webkit-tap-highlight-color: rgba(0, 0, 0, 0);">输出用户输入的所有子句</tspan></text><path fill="#ffffff" stroke="#000000" d="M102.01171875,51.005859375L0,102.01171875L204.0234375,204.0234375L408.046875,102.01171875L204.0234375,0L0,102.01171875" stroke-width="2" id="while" class="flowchart" style="-webkit-tap-highlight-color: rgba(0, 0, 0, 0);" transform="matrix(1,0,0,1,4,704.3906)"></path><text x="107.01171875" y="102.01171875" text-anchor="start" font="10px &quot;Arial&quot;" stroke="none" fill="#000000" style="-webkit-tap-highlight-color: rgba(0, 0, 0, 0); text-anchor: start; font: 15px Arial;" id="whilet" class="flowchartt" font-size="15px" transform="matrix(1,0,0,1,4,704.3906)" stroke-width="1"><tspan dy="5.04296875" style="-webkit-tap-highlight-color: rgba(0, 0, 0, 0);">while(未生成空子句且有新子句生成)</tspan></text><rect x="0" y="0" width="40.421875" height="38.171875" r="0" rx="0" ry="0" fill="#ffffff" stroke="#000000" style="-webkit-tap-highlight-color: rgba(0, 0, 0, 0);" stroke-width="2" class="flowchart" id="i" transform="matrix(1,0,0,1,187.8125,1045.3398)"></rect><text x="10" y="19.0859375" text-anchor="start" font="10px &quot;Arial&quot;" stroke="none" fill="#000000" style="-webkit-tap-highlight-color: rgba(0, 0, 0, 0); text-anchor: start; font: 15px Arial;" id="it" class="flowchartt" font-size="15px" transform="matrix(1,0,0,1,187.8125,1045.3398)" stroke-width="1"><tspan dy="5.046875" style="-webkit-tap-highlight-color: rgba(0, 0, 0, 0);">i=0</tspan></text><path fill="#ffffff" stroke="#000000" d="M58.458984375,29.2294921875L0,58.458984375L116.91796875,116.91796875L233.8359375,58.458984375L116.91796875,0L0,58.458984375" stroke-width="2" id="for_i" class="flowchart" style="-webkit-tap-highlight-color: rgba(0, 0, 0, 0);" transform="matrix(1,0,0,1,91.1055,1181.0645)"></path><text x="63.458984375" y="58.458984375" text-anchor="start" font="10px &quot;Arial&quot;" stroke="none" fill="#000000" style="-webkit-tap-highlight-color: rgba(0, 0, 0, 0); text-anchor: start; font: 15px Arial;" id="for_it" class="flowchartt" font-size="15px" transform="matrix(1,0,0,1,91.1055,1181.0645)" stroke-width="1"><tspan dy="5.044921875" style="-webkit-tap-highlight-color: rgba(0, 0, 0, 0);">for(i &lt; 子句的数目)</tspan></text><rect x="0" y="0" width="42.453125" height="38.171875" r="0" rx="0" ry="0" fill="#ffffff" stroke="#000000" style="-webkit-tap-highlight-color: rgba(0, 0, 0, 0);" stroke-width="2" class="flowchart" id="j" transform="matrix(1,0,0,1,186.7969,1434.9082)"></rect><text x="10" y="19.0859375" text-anchor="start" font="10px &quot;Arial&quot;" stroke="none" fill="#000000" style="-webkit-tap-highlight-color: rgba(0, 0, 0, 0); text-anchor: start; font: 15px Arial;" id="jt" class="flowchartt" font-size="15px" transform="matrix(1,0,0,1,186.7969,1434.9082)" stroke-width="1"><tspan dy="5.046875" style="-webkit-tap-highlight-color: rgba(0, 0, 0, 0);">j=0</tspan></text><path fill="#ffffff" stroke="#000000" d="M58.458984375,29.2294921875L0,58.458984375L116.91796875,116.91796875L233.8359375,58.458984375L116.91796875,0L0,58.458984375" stroke-width="2" id="for_j" class="flowchart" style="-webkit-tap-highlight-color: rgba(0, 0, 0, 0);" transform="matrix(1,0,0,1,91.1055,1570.6328)"></path><text x="63.458984375" y="58.458984375" text-anchor="start" font="10px &quot;Arial&quot;" stroke="none" fill="#000000" style="-webkit-tap-highlight-color: rgba(0, 0, 0, 0); text-anchor: start; font: 15px Arial;" id="for_jt" class="flowchartt" font-size="15px" transform="matrix(1,0,0,1,91.1055,1570.6328)" stroke-width="1"><tspan dy="5.044921875" style="-webkit-tap-highlight-color: rgba(0, 0, 0, 0);">for(j &lt; 子句的数目)</tspan></text><rect x="0" y="0" width="194.6875" height="38.171875" r="0" rx="0" ry="0" fill="#ffffff" stroke="#000000" style="-webkit-tap-highlight-color: rgba(0, 0, 0, 0);" stroke-width="2" class="flowchart" id="resolution" transform="matrix(1,0,0,1,110.6797,1824.4766)"></rect><text x="10" y="19.0859375" text-anchor="start" font="10px &quot;Arial&quot;" stroke="none" fill="#000000" style="-webkit-tap-highlight-color: rgba(0, 0, 0, 0); text-anchor: start; font: 15px Arial;" id="resolutiont" class="flowchartt" font-size="15px" transform="matrix(1,0,0,1,110.6797,1824.4766)" stroke-width="1"><tspan dy="5.046875" style="-webkit-tap-highlight-color: rgba(0, 0, 0, 0);">对第i和第j个子句进行归结</tspan></text><path fill="#ffffff" stroke="#000000" d="M62.58984375,31.294921875L0,62.58984375L125.1796875,125.1796875L250.359375,62.58984375L125.1796875,0L0,62.58984375" stroke-width="2" id="new_clause_or_not" class="flowchart" style="-webkit-tap-highlight-color: rgba(0, 0, 0, 0);" transform="matrix(1,0,0,1,82.8438,1956.0703)"></path><text x="67.58984375" y="62.58984375" text-anchor="start" font="10px &quot;Arial&quot;" stroke="none" fill="#000000" style="-webkit-tap-highlight-color: rgba(0, 0, 0, 0); text-anchor: start; font: 15px Arial;" id="new_clause_or_nott" class="flowchartt" font-size="15px" transform="matrix(1,0,0,1,82.8438,1956.0703)" stroke-width="1"><tspan dy="5.04296875" style="-webkit-tap-highlight-color: rgba(0, 0, 0, 0);">判断是否生成新子句</tspan></text><rect x="0" y="0" width="203" height="38.171875" r="0" rx="0" ry="0" fill="#ffffff" stroke="#000000" style="-webkit-tap-highlight-color: rgba(0, 0, 0, 0);" stroke-width="2" class="flowchart" id="print_msg" transform="matrix(1,0,0,1,106.5234,2218.1758)"></rect><text x="10" y="19.0859375" text-anchor="start" font="10px &quot;Arial&quot;" stroke="none" fill="#000000" style="-webkit-tap-highlight-color: rgba(0, 0, 0, 0); text-anchor: start; font: 15px Arial;" id="print_msgt" class="flowchartt" font-size="15px" transform="matrix(1,0,0,1,106.5234,2218.1758)" stroke-width="1"><tspan dy="5.046875" style="-webkit-tap-highlight-color: rgba(0, 0, 0, 0);">输出子句生成过程相关信息</tspan></text><rect x="0" y="0" width="111.953125" height="38.171875" r="0" rx="0" ry="0" fill="#ffffff" stroke="#000000" style="-webkit-tap-highlight-color: rgba(0, 0, 0, 0);" stroke-width="2" class="flowchart" id="print_clause" transform="matrix(1,0,0,1,152.0469,2393.2734)"></rect><text x="10" y="19.0859375" text-anchor="start" font="10px &quot;Arial&quot;" stroke="none" fill="#000000" style="-webkit-tap-highlight-color: rgba(0, 0, 0, 0); text-anchor: start; font: 15px Arial;" id="print_clauset" class="flowchartt" font-size="15px" transform="matrix(1,0,0,1,152.0469,2393.2734)" stroke-width="1"><tspan dy="5.046875" style="-webkit-tap-highlight-color: rgba(0, 0, 0, 0);">输出该新子句</tspan></text><path fill="#ffffff" stroke="#000000" d="M68.208984375,34.1044921875L0,68.208984375L136.41796875,136.41796875L272.8359375,68.208984375L136.41796875,0L0,68.208984375" stroke-width="2" id="new_clause_empty" class="flowchart" style="-webkit-tap-highlight-color: rgba(0, 0, 0, 0);" transform="matrix(1,0,0,1,71.6055,2519.248)"></path><text x="73.208984375" y="68.208984375" text-anchor="start" font="10px &quot;Arial&quot;" stroke="none" fill="#000000" style="-webkit-tap-highlight-color: rgba(0, 0, 0, 0); text-anchor: start; font: 15px Arial;" id="new_clause_emptyt" class="flowchartt" font-size="15px" transform="matrix(1,0,0,1,71.6055,2519.248)" stroke-width="1"><tspan dy="5.044921875" style="-webkit-tap-highlight-color: rgba(0, 0, 0, 0);">判断是否生成了空子句</tspan></text><rect x="0" y="0" width="143.0625" height="38.171875" r="0" rx="0" ry="0" fill="#ffffff" stroke="#000000" style="-webkit-tap-highlight-color: rgba(0, 0, 0, 0);" stroke-width="2" class="flowchart" id="break" transform="matrix(1,0,0,1,136.4922,2792.5918)"></rect><text x="10" y="19.0859375" text-anchor="start" font="10px &quot;Arial&quot;" stroke="none" fill="#000000" style="-webkit-tap-highlight-color: rgba(0, 0, 0, 0); text-anchor: start; font: 15px Arial;" id="breakt" class="flowchartt" font-size="15px" transform="matrix(1,0,0,1,136.4922,2792.5918)" stroke-width="1"><tspan dy="5.046875" style="-webkit-tap-highlight-color: rgba(0, 0, 0, 0);">循环条件不再满足</tspan></text><rect x="0" y="0" width="53.15625" height="38.171875" r="20" rx="20" ry="20" fill="#ffffff" stroke="#000000" style="-webkit-tap-highlight-color: rgba(0, 0, 0, 0);" stroke-width="2" class="flowchart" id="end" transform="matrix(1,0,0,1,511,2792.5918)"></rect><text x="10" y="19.0859375" text-anchor="start" font="10px &quot;Arial&quot;" stroke="none" fill="#000000" style="-webkit-tap-highlight-color: rgba(0, 0, 0, 0); text-anchor: start; font: 15px Arial;" id="endt" class="flowchartt" font-size="15px" transform="matrix(1,0,0,1,511,2792.5918)" stroke-width="1"><tspan dy="5.046875" style="-webkit-tap-highlight-color: rgba(0, 0, 0, 0);">结束</tspan></text><rect x="0" y="0" width="171.890625" height="38.171875" r="0" rx="0" ry="0" fill="#ffffff" stroke="#000000" style="-webkit-tap-highlight-color: rgba(0, 0, 0, 0);" stroke-width="2" class="flowchart" id="append" transform="matrix(1,0,0,1,614.1563,2568.3711)"></rect><text x="10" y="19.0859375" text-anchor="start" font="10px &quot;Arial&quot;" stroke="none" fill="#000000" style="-webkit-tap-highlight-color: rgba(0, 0, 0, 0); text-anchor: start; font: 15px Arial;" id="appendt" class="flowchartt" font-size="15px" transform="matrix(1,0,0,1,614.1563,2568.3711)" stroke-width="1"><tspan dy="5.046875" style="-webkit-tap-highlight-color: rgba(0, 0, 0, 0);">将新子句加入子句集中</tspan></text><rect x="0" y="0" width="173.03125" height="38.171875" r="0" rx="0" ry="0" fill="#ffffff" stroke="#000000" style="-webkit-tap-highlight-color: rgba(0, 0, 0, 0);" stroke-width="2" class="flowchart" id="do6" transform="matrix(1,0,0,1,613.5859,2743.4688)"></rect><text x="10" y="19.0859375" text-anchor="start" font="10px &quot;Arial&quot;" stroke="none" fill="#000000" style="-webkit-tap-highlight-color: rgba(0, 0, 0, 0); text-anchor: start; font: 15px Arial;" id="do6t" class="flowchartt" font-size="15px" transform="matrix(1,0,0,1,613.5859,2743.4688)" stroke-width="1"><tspan dy="5.046875" style="-webkit-tap-highlight-color: rgba(0, 0, 0, 0);">对该子句进行结束判断</tspan></text><path fill="#ffffff" stroke="#000000" d="M62.58984375,31.294921875L0,62.58984375L125.1796875,125.1796875L250.359375,62.58984375L125.1796875,0L0,62.58984375" stroke-width="2" id="if3" class="flowchart" style="-webkit-tap-highlight-color: rgba(0, 0, 0, 0);" transform="matrix(1,0,0,1,574.9219,2875.0625)"></path><text x="67.58984375" y="62.58984375" text-anchor="start" font="10px &quot;Arial&quot;" stroke="none" fill="#000000" style="-webkit-tap-highlight-color: rgba(0, 0, 0, 0); text-anchor: start; font: 15px Arial;" id="if3t" class="flowchartt" font-size="15px" transform="matrix(1,0,0,1,574.9219,2875.0625)" stroke-width="1"><tspan dy="5.04296875" style="-webkit-tap-highlight-color: rgba(0, 0, 0, 0);">是否只有一条新子句</tspan></text><path fill="#ffffff" stroke="#000000" d="M56.970703125,28.4853515625L0,56.970703125L113.94140625,113.94140625L227.8828125,56.970703125L113.94140625,0L0,56.970703125" stroke-width="2" id="if4" class="flowchart" style="-webkit-tap-highlight-color: rgba(0, 0, 0, 0);" transform="matrix(1,0,0,1,586.1602,3099.2832)"></path><text x="61.970703125" y="56.970703125" text-anchor="start" font="10px &quot;Arial&quot;" stroke="none" fill="#000000" style="-webkit-tap-highlight-color: rgba(0, 0, 0, 0); text-anchor: start; font: 15px Arial;" id="if4t" class="flowchartt" font-size="15px" transform="matrix(1,0,0,1,586.1602,3099.2832)" stroke-width="1"><tspan dy="5.041015625" style="-webkit-tap-highlight-color: rgba(0, 0, 0, 0);">该子句有互补子句</tspan></text><rect x="0" y="0" width="217.984375" height="38.171875" r="0" rx="0" ry="0" fill="#ffffff" stroke="#000000" style="-webkit-tap-highlight-color: rgba(0, 0, 0, 0);" stroke-width="2" class="flowchart" id="do7" transform="matrix(1,0,0,1,591.1094,3350.1504)"></rect><text x="10" y="19.0859375" text-anchor="start" font="10px &quot;Arial&quot;" stroke="none" fill="#000000" style="-webkit-tap-highlight-color: rgba(0, 0, 0, 0); text-anchor: start; font: 15px Arial;" id="do7t" class="flowchartt" font-size="15px" transform="matrix(1,0,0,1,591.1094,3350.1504)" stroke-width="1"><tspan dy="5.046875" style="-webkit-tap-highlight-color: rgba(0, 0, 0, 0);">输出空子句生成过程相关信息</tspan></text><rect x="0" y="0" width="116.328125" height="38.171875" r="0" rx="0" ry="0" fill="#ffffff" stroke="#000000" style="-webkit-tap-highlight-color: rgba(0, 0, 0, 0);" stroke-width="2" class="flowchart" id="do8" transform="matrix(1,0,0,1,1008.9531,3350.1504)"></rect><text x="10" y="19.0859375" text-anchor="start" font="10px &quot;Arial&quot;" stroke="none" fill="#000000" style="-webkit-tap-highlight-color: rgba(0, 0, 0, 0); text-anchor: start; font: 15px Arial;" id="do8t" class="flowchartt" font-size="15px" transform="matrix(1,0,0,1,1008.9531,3350.1504)" stroke-width="1"><tspan dy="5.046875" style="-webkit-tap-highlight-color: rgba(0, 0, 0, 0);">输出空子句“[]”</tspan><tspan dy="18" x="10" style="-webkit-tap-highlight-color: rgba(0, 0, 0, 0);"></tspan></text><rect x="0" y="0" width="42.875" height="38.171875" r="0" rx="0" ry="0" fill="#ffffff" stroke="#000000" style="-webkit-tap-highlight-color: rgba(0, 0, 0, 0);" stroke-width="2" class="flowchart" id="j++" transform="matrix(1,0,0,1,1175.2813,3137.168)"></rect><text x="10" y="19.0859375" text-anchor="start" font="10px &quot;Arial&quot;" stroke="none" fill="#000000" style="-webkit-tap-highlight-color: rgba(0, 0, 0, 0); text-anchor: start; font: 15px Arial;" id="j++t" class="flowchartt" font-size="15px" transform="matrix(1,0,0,1,1175.2813,3137.168)" stroke-width="1"><tspan dy="5.046875" style="-webkit-tap-highlight-color: rgba(0, 0, 0, 0);">j++</tspan></text><rect x="0" y="0" width="40.84375" height="38.171875" r="0" rx="0" ry="0" fill="#ffffff" stroke="#000000" style="-webkit-tap-highlight-color: rgba(0, 0, 0, 0);" stroke-width="2" class="flowchart" id="i++" transform="matrix(1,0,0,1,562.543,1610.0059)"></rect><text x="10" y="19.0859375" text-anchor="start" font="10px &quot;Arial&quot;" stroke="none" fill="#000000" style="-webkit-tap-highlight-color: rgba(0, 0, 0, 0); text-anchor: start; font: 15px Arial;" id="i++t" class="flowchartt" font-size="15px" transform="matrix(1,0,0,1,562.543,1610.0059)" stroke-width="1"><tspan dy="5.046875" style="-webkit-tap-highlight-color: rgba(0, 0, 0, 0);">i++</tspan></text><path fill="none" stroke="#000000" d="M208.0234375,125.09765625C208.0234375,125.09765625,208.0234375,238.95119766821153,208.0234375,259.02010804515214" stroke-width="2" marker-end="url(#raphael-marker-endblock33-obj38)" style="-webkit-tap-highlight-color: rgba(0, 0, 0, 0);"></path><path fill="none" stroke="#000000" d="M208.0234375,300.1953125C208.0234375,300.1953125,208.0234375,414.04885391821153,208.0234375,434.11776429515214" stroke-width="2" marker-end="url(#raphael-marker-endblock33-obj38)" style="-webkit-tap-highlight-color: rgba(0, 0, 0, 0);"></path><path fill="none" stroke="#000000" d="M208.0234375,475.29296875C208.0234375,475.29296875,208.0234375,589.1465101682115,208.0234375,609.2154205451521" stroke-width="2" marker-end="url(#raphael-marker-endblock33-obj38)" style="-webkit-tap-highlight-color: rgba(0, 0, 0, 0);"></path><path fill="none" stroke="#000000" d="M208.0234375,650.390625C208.0234375,650.390625,208.0234375,690.0447249412537,208.0234375,701.3910640846007" stroke-width="2" marker-end="url(#raphael-marker-endblock33-obj38)" style="-webkit-tap-highlight-color: rgba(0, 0, 0, 0);"></path><path fill="none" stroke="#000000" d="M208.0234375,908.4140625C208.0234375,908.4140625,208.0234375,1022.2676039182115,208.0234375,1042.336514295152" stroke-width="2" marker-end="url(#raphael-marker-endblock33-obj38)" style="-webkit-tap-highlight-color: rgba(0, 0, 0, 0);"></path><text x="213.0234375" y="918.4140625" text-anchor="start" font="10px &quot;Arial&quot;" stroke="none" fill="#000000" style="-webkit-tap-highlight-color: rgba(0, 0, 0, 0); text-anchor: start; font: 15px Arial;" font-size="15px" stroke-width="1"><tspan dy="5.046875" style="-webkit-tap-highlight-color: rgba(0, 0, 0, 0);">yes</tspan></text><path fill="none" stroke="#000000" d="M412.046875,806.40234375C412.046875,806.40234375,437.046875,806.40234375,437.046875,806.40234375C437.046875,806.40234375,437.046875,2767.591796875,437.046875,2767.591796875C437.046875,2767.591796875,208.0234375,2767.591796875,208.0234375,2767.591796875C208.0234375,2767.591796875,208.0234375,2782.96524143219,208.0234375,2789.6010446492583" stroke-width="2" marker-end="url(#raphael-marker-endblock33-obj38)" style="-webkit-tap-highlight-color: rgba(0, 0, 0, 0);"></path><text x="417.046875" y="796.40234375" text-anchor="start" font="10px &quot;Arial&quot;" stroke="none" fill="#000000" style="-webkit-tap-highlight-color: rgba(0, 0, 0, 0); text-anchor: start; font: 15px Arial;" font-size="15px" stroke-width="1"><tspan dy="5.04296875" style="-webkit-tap-highlight-color: rgba(0, 0, 0, 0);">no</tspan></text><path fill="none" stroke="#000000" d="M208.0234375,1083.51171875C208.0234375,1083.51171875,208.0234375,1161.6573083749972,208.0234375,1178.064829634152" stroke-width="2" marker-end="url(#raphael-marker-endblock33-obj38)" style="-webkit-tap-highlight-color: rgba(0, 0, 0, 0);"></path><path fill="none" stroke="#000000" d="M208.0234375,1297.982421875C208.0234375,1297.982421875,208.0234375,1411.8359632932115,208.0234375,1431.9048736701523" stroke-width="2" marker-end="url(#raphael-marker-endblock33-obj38)" style="-webkit-tap-highlight-color: rgba(0, 0, 0, 0);"></path><text x="213.0234375" y="1307.982421875" text-anchor="start" font="10px &quot;Arial&quot;" stroke="none" fill="#000000" style="-webkit-tap-highlight-color: rgba(0, 0, 0, 0); text-anchor: start; font: 15px Arial;" font-size="15px" stroke-width="1"><tspan dy="5.037109375" style="-webkit-tap-highlight-color: rgba(0, 0, 0, 0);">yes</tspan></text><path fill="none" stroke="#000000" d="M324.94140625,1239.5234375C324.94140625,1239.5234375,349.94140625,1239.5234375,349.94140625,1239.5234375C349.94140625,1239.5234375,349.94140625,679.390625,349.94140625,679.390625C349.94140625,679.390625,208.0234375,679.390625,208.0234375,679.390625C208.0234375,679.390625,208.0234375,694.7640695571899,208.0234375,701.3998727742583" stroke-width="2" marker-end="url(#raphael-marker-endblock33-obj38)" style="-webkit-tap-highlight-color: rgba(0, 0, 0, 0);"></path><text x="329.94140625" y="1229.5234375" text-anchor="start" font="10px &quot;Arial&quot;" stroke="none" fill="#000000" style="-webkit-tap-highlight-color: rgba(0, 0, 0, 0); text-anchor: start; font: 15px Arial;" font-size="15px" stroke-width="1"><tspan dy="5.046875" style="-webkit-tap-highlight-color: rgba(0, 0, 0, 0);">no</tspan></text><path fill="none" stroke="#000000" d="M208.0234375,1473.080078125C208.0234375,1473.080078125,208.0234375,1551.2256677499972,208.0234375,1567.633189009152" stroke-width="2" marker-end="url(#raphael-marker-endblock33-obj38)" style="-webkit-tap-highlight-color: rgba(0, 0, 0, 0);"></path><path fill="none" stroke="#000000" d="M208.0234375,1687.55078125C208.0234375,1687.55078125,208.0234375,1801.4043226682115,208.0234375,1821.4732330451523" stroke-width="2" marker-end="url(#raphael-marker-endblock33-obj38)" style="-webkit-tap-highlight-color: rgba(0, 0, 0, 0);"></path><text x="213.0234375" y="1697.55078125" text-anchor="start" font="10px &quot;Arial&quot;" stroke="none" fill="#000000" style="-webkit-tap-highlight-color: rgba(0, 0, 0, 0); text-anchor: start; font: 15px Arial;" font-size="15px" stroke-width="1"><tspan dy="5.04296875" style="-webkit-tap-highlight-color: rgba(0, 0, 0, 0);">yes</tspan></text><path fill="none" stroke="#000000" d="M324.94140625,1629.091796875C324.94140625,1629.091796875,433.046875,1629.091796875,433.046875,1629.091796875C433.046875,1629.091796875,437.046875,1621.091796875,441.046875,1629.091796875C441.046875,1629.091796875,540.8302879333496,1629.091796875,559.5396778583527,1629.091796875" stroke-width="2" marker-end="url(#raphael-marker-endblock33-obj38)" style="-webkit-tap-highlight-color: rgba(0, 0, 0, 0);"></path><text x="329.94140625" y="1619.091796875" text-anchor="start" font="10px &quot;Arial&quot;" stroke="none" fill="#000000" style="-webkit-tap-highlight-color: rgba(0, 0, 0, 0); text-anchor: start; font: 15px Arial;" font-size="15px" stroke-width="1"><tspan dy="5.037109375" style="-webkit-tap-highlight-color: rgba(0, 0, 0, 0);">no</tspan></text><path fill="none" stroke="#000000" d="M208.0234375,1862.6484375C208.0234375,1862.6484375,208.0234375,1937.0772444605827,208.0234375,1953.0678084560204" stroke-width="2" marker-end="url(#raphael-marker-endblock33-obj38)" style="-webkit-tap-highlight-color: rgba(0, 0, 0, 0);"></path><path fill="none" stroke="#000000" d="M208.0234375,2081.25C208.0234375,2081.25,208.0234375,2195.1035414182115,208.0234375,2215.1724517951525" stroke-width="2" marker-end="url(#raphael-marker-endblock33-obj38)" style="-webkit-tap-highlight-color: rgba(0, 0, 0, 0);"></path><text x="213.0234375" y="2091.25" text-anchor="start" font="10px &quot;Arial&quot;" stroke="none" fill="#000000" style="-webkit-tap-highlight-color: rgba(0, 0, 0, 0); text-anchor: start; font: 15px Arial;" font-size="15px" stroke-width="1"><tspan dy="5.0390625" style="-webkit-tap-highlight-color: rgba(0, 0, 0, 0);">yes</tspan></text><path fill="none" stroke="#000000" d="M333.203125,2018.66015625C333.203125,2018.66015625,433.046875,2018.66015625,433.046875,2018.66015625C433.046875,2018.66015625,437.046875,2010.66015625,441.046875,2018.66015625C441.046875,2018.66015625,1196.71875,2018.66015625,1196.71875,2018.66015625C1196.71875,2018.66015625,1196.71875,3070.603314551554,1196.71875,3134.166774434277" stroke-width="2" marker-end="url(#raphael-marker-endblock33-obj38)" style="-webkit-tap-highlight-color: rgba(0, 0, 0, 0);"></path><text x="338.203125" y="2008.66015625" text-anchor="start" font="10px &quot;Arial&quot;" stroke="none" fill="#000000" style="-webkit-tap-highlight-color: rgba(0, 0, 0, 0); text-anchor: start; font: 15px Arial;" font-size="15px" stroke-width="1"><tspan dy="5.04296875" style="-webkit-tap-highlight-color: rgba(0, 0, 0, 0);">no</tspan></text><path fill="none" stroke="#000000" d="M208.0234375,2256.34765625C208.0234375,2256.34765625,208.0234375,2370.2011976682115,208.0234375,2390.270108045152" stroke-width="2" marker-end="url(#raphael-marker-endblock33-obj38)" style="-webkit-tap-highlight-color: rgba(0, 0, 0, 0);"></path><path fill="none" stroke="#000000" d="M208.0234375,2431.4453125C208.0234375,2431.4453125,208.0234375,2500.862662100699,208.0234375,2516.25107846726" stroke-width="2" marker-end="url(#raphael-marker-endblock33-obj38)" style="-webkit-tap-highlight-color: rgba(0, 0, 0, 0);"></path><path fill="none" stroke="#000000" d="M208.0234375,2655.666015625C208.0234375,2655.666015625,208.0234375,2769.5195570432115,208.0234375,2789.5884674201525" stroke-width="2" marker-end="url(#raphael-marker-endblock33-obj38)" style="-webkit-tap-highlight-color: rgba(0, 0, 0, 0);"></path><text x="213.0234375" y="2665.666015625" text-anchor="start" font="10px &quot;Arial&quot;" stroke="none" fill="#000000" style="-webkit-tap-highlight-color: rgba(0, 0, 0, 0); text-anchor: start; font: 15px Arial;" font-size="15px" stroke-width="1"><tspan dy="5.041015625" style="-webkit-tap-highlight-color: rgba(0, 0, 0, 0);">yes</tspan></text><path fill="none" stroke="#000000" d="M344.44140625,2587.45703125C344.44140625,2587.45703125,433.046875,2587.45703125,433.046875,2587.45703125C433.046875,2587.45703125,437.046875,2579.45703125,441.046875,2587.45703125C441.046875,2587.45703125,588.1644859313965,2587.45703125,611.1516126394272,2587.45703125" stroke-width="2" marker-end="url(#raphael-marker-endblock33-obj38)" style="-webkit-tap-highlight-color: rgba(0, 0, 0, 0);"></path><text x="349.44140625" y="2577.45703125" text-anchor="start" font="10px &quot;Arial&quot;" stroke="none" fill="#000000" style="-webkit-tap-highlight-color: rgba(0, 0, 0, 0); text-anchor: start; font: 15px Arial;" font-size="15px" stroke-width="1"><tspan dy="5.04296875" style="-webkit-tap-highlight-color: rgba(0, 0, 0, 0);">no</tspan></text><path fill="none" stroke="#000000" d="M279.5546875,2811.677734375C279.5546875,2811.677734375,480.9126933264779,2811.677734375,507.9996711610456,2811.677734375" stroke-width="2" marker-end="url(#raphael-marker-endblock33-obj38)" style="-webkit-tap-highlight-color: rgba(0, 0, 0, 0);"></path><path fill="none" stroke="#000000" d="M700.1015625,2606.54296875C700.1015625,2606.54296875,700.1015625,2720.3965101682115,700.1015625,2740.465420545152" stroke-width="2" marker-end="url(#raphael-marker-endblock33-obj38)" style="-webkit-tap-highlight-color: rgba(0, 0, 0, 0);"></path><path fill="none" stroke="#000000" d="M700.1015625,2781.640625C700.1015625,2781.640625,700.1015625,2856.0694319605827,700.1015625,2872.0599959560204" stroke-width="2" marker-end="url(#raphael-marker-endblock33-obj38)" style="-webkit-tap-highlight-color: rgba(0, 0, 0, 0);"></path><path fill="none" stroke="#000000" d="M700.1015625,3000.2421875C700.1015625,3000.2421875,700.1015625,3079.753206214402,700.1015625,3096.2921192868316" stroke-width="2" marker-end="url(#raphael-marker-endblock33-obj38)" style="-webkit-tap-highlight-color: rgba(0, 0, 0, 0);"></path><text x="705.1015625" y="3010.2421875" text-anchor="start" font="10px &quot;Arial&quot;" stroke="none" fill="#000000" style="-webkit-tap-highlight-color: rgba(0, 0, 0, 0); text-anchor: start; font: 15px Arial;" font-size="15px" stroke-width="1"><tspan dy="5.046875" style="-webkit-tap-highlight-color: rgba(0, 0, 0, 0);">yes</tspan></text><path fill="none" stroke="#000000" d="M825.28125,2937.65234375C825.28125,2937.65234375,1196.71875,2937.65234375,1196.71875,2937.65234375C1196.71875,2937.65234375,1196.71875,3109.283292875625,1196.71875,3134.173132665816" stroke-width="2" marker-end="url(#raphael-marker-endblock33-obj38)" style="-webkit-tap-highlight-color: rgba(0, 0, 0, 0);"></path><text x="830.28125" y="2927.65234375" text-anchor="start" font="10px &quot;Arial&quot;" stroke="none" fill="#000000" style="-webkit-tap-highlight-color: rgba(0, 0, 0, 0); text-anchor: start; font: 15px Arial;" font-size="15px" stroke-width="1"><tspan dy="5.04296875" style="-webkit-tap-highlight-color: rgba(0, 0, 0, 0);">no</tspan></text><path fill="none" stroke="#000000" d="M700.1015625,3213.224609375C700.1015625,3213.224609375,700.1015625,3327.0781507932115,700.1015625,3347.1470611701525" stroke-width="2" marker-end="url(#raphael-marker-endblock33-obj38)" style="-webkit-tap-highlight-color: rgba(0, 0, 0, 0);"></path><text x="705.1015625" y="3223.224609375" text-anchor="start" font="10px &quot;Arial&quot;" stroke="none" fill="#000000" style="-webkit-tap-highlight-color: rgba(0, 0, 0, 0); text-anchor: start; font: 15px Arial;" font-size="15px" stroke-width="1"><tspan dy="5.044921875" style="-webkit-tap-highlight-color: rgba(0, 0, 0, 0);">yes</tspan></text><path fill="none" stroke="#000000" d="M814.04296875,3156.25390625C814.04296875,3156.25390625,1137.6019415080664,3156.25390625,1172.2802591449781,3156.25390625" stroke-width="2" marker-end="url(#raphael-marker-endblock33-obj38)" style="-webkit-tap-highlight-color: rgba(0, 0, 0, 0);"></path><text x="819.04296875" y="3146.25390625" text-anchor="start" font="10px &quot;Arial&quot;" stroke="none" fill="#000000" style="-webkit-tap-highlight-color: rgba(0, 0, 0, 0); text-anchor: start; font: 15px Arial;" font-size="15px" stroke-width="1"><tspan dy="5.04296875" style="-webkit-tap-highlight-color: rgba(0, 0, 0, 0);">no</tspan></text><path fill="none" stroke="#000000" d="M809.09375,3369.236328125C809.09375,3369.236328125,981.0204059844837,3369.236328125,1005.9531290447335,3369.236328125" stroke-width="2" marker-end="url(#raphael-marker-endblock33-obj38)" style="-webkit-tap-highlight-color: rgba(0, 0, 0, 0);"></path><path fill="none" stroke="#000000" d="M1125.28125,3369.236328125C1125.28125,3369.236328125,1150.28125,3369.236328125,1150.28125,3369.236328125C1150.28125,3369.236328125,1150.28125,3160.25390625,1150.28125,3160.25390625C1150.28125,3160.25390625,1158.28125,3156.25390625,1150.28125,3152.25390625C1150.28125,3152.25390625,1150.28125,2941.65234375,1150.28125,2941.65234375C1150.28125,2941.65234375,1158.28125,2937.65234375,1150.28125,2933.65234375C1150.28125,2933.65234375,1150.28125,2767.591796875,1150.28125,2767.591796875C1150.28125,2767.591796875,208.0234375,2767.591796875,208.0234375,2767.591796875C208.0234375,2767.591796875,208.0234375,2782.96524143219,208.0234375,2789.6010446492583" stroke-width="2" marker-end="url(#raphael-marker-endblock33-obj38)" style="-webkit-tap-highlight-color: rgba(0, 0, 0, 0);"></path><path fill="none" stroke="#000000" d="M1196.71875,3175.33984375C1196.71875,3175.33984375,1196.71875,3200.33984375,1196.71875,3200.33984375C1196.71875,3200.33984375,1691.06640625,3200.33984375,1691.06640625,3200.33984375C1691.06640625,3200.33984375,1691.06640625,1545.6328125,1691.06640625,1545.6328125C1691.06640625,1545.6328125,441.046875,1545.6328125,441.046875,1545.6328125C441.046875,1545.6328125,437.046875,1537.6328125,433.046875,1545.6328125C433.046875,1545.6328125,208.0234375,1545.6328125,208.0234375,1545.6328125C208.0234375,1545.6328125,208.0234375,1561.00625705719,208.0234375,1567.6420602742583" stroke-width="2" marker-end="url(#raphael-marker-endblock33-obj38)" style="-webkit-tap-highlight-color: rgba(0, 0, 0, 0);"></path><path fill="none" stroke="#000000" d="M582.96484375,1648.177734375C582.96484375,1648.177734375,582.96484375,1673.177734375,582.96484375,1673.177734375C582.96484375,1673.177734375,770.435546875,1673.177734375,770.435546875,1673.177734375C770.435546875,1673.177734375,770.435546875,1549.6328125,770.435546875,1549.6328125C770.435546875,1549.6328125,778.435546875,1545.6328125,770.435546875,1541.6328125C770.435546875,1541.6328125,770.435546875,1156.064453125,770.435546875,1156.064453125C770.435546875,1156.064453125,441.046875,1156.064453125,441.046875,1156.064453125C441.046875,1156.064453125,437.046875,1148.064453125,433.046875,1156.064453125C433.046875,1156.064453125,353.94140625,1156.064453125,353.94140625,1156.064453125C353.94140625,1156.064453125,349.94140625,1148.064453125,345.94140625,1156.064453125C345.94140625,1156.064453125,208.0234375,1156.064453125,208.0234375,1156.064453125C208.0234375,1156.064453125,208.0234375,1171.43789768219,208.0234375,1178.0737008992583" stroke-width="2" marker-end="url(#raphael-marker-endblock33-obj38)" style="-webkit-tap-highlight-color: rgba(0, 0, 0, 0);"></path></svg>