<?xml version="1.0" encoding="utf-8" standalone="no"?><!DOCTYPE svg PUBLIC "-//W3C//DTD SVG 20010904//EN" "http://www.w3.org/TR/2001/REC-SVG-20010904/DTD/svg10.dtd"><svg xmlns="http://www.w3.org/2000/svg" width="463" height="1841" xmlns:xlink="http://www.w3.org/1999/xlink"><source><![CDATA[Created with Raphaël 2.1.2开始打开并读入目标方形图形的数据（迷宫数据）到列表查找起点和终点位置初始化用于记录某点的父亲节点、记录路径、记录访问状态的列表调用深度优先搜索模块分别判断当前点A的4个方向的点是否可被访问某方向点点B是否可被访问设置该方向点B被访问并将点B入栈，设置点B的父亲节点为点A判断是否到达终点从终点出发回溯路径上的点,生成关键路径输出关键路径程序结束yesyesno]]></source><desc style="-webkit-tap-highlight-color: rgba(0, 0, 0, 0);">Created with Raphaël 2.1.2</desc><defs style="-webkit-tap-highlight-color: rgba(0, 0, 0, 0);"><path stroke-linecap="round" d="M5,0 0,2.5 5,5z" id="raphael-marker-block-obj7" style="-webkit-tap-highlight-color: rgba(0, 0, 0, 0);"></path><marker id="raphael-marker-endblock33-obj8" markerHeight="3" markerWidth="3" orient="auto" refX="1.5" refY="1.5" style="-webkit-tap-highlight-color: rgba(0, 0, 0, 0);"><use xlink:href="#raphael-marker-block-obj7" transform="rotate(180 1.5 1.5) scale(0.6,0.6)" stroke-width="1.6667" fill="black" stroke="none" style="-webkit-tap-highlight-color: rgba(0, 0, 0, 0);"></use></marker></defs><rect x="0" y="0" width="52.13780975341797" height="36.13445281982422" r="20" rx="20" ry="20" fill="#ffffff" stroke="#000000" style="-webkit-tap-highlight-color: rgba(0, 0, 0, 0);" stroke-width="2" class="flowchart" id="st" transform="matrix(1,0,0,1,206.4319,63.2148)"></rect><text x="10" y="18.06722640991211" text-anchor="start" font="10px &quot;Arial&quot;" stroke="none" fill="#000000" style="-webkit-tap-highlight-color: rgba(0, 0, 0, 0); text-anchor: start; font: 15px Arial;" id="stt" class="flowchartt" font-size="15px" transform="matrix(1,0,0,1,206.4319,63.2148)" stroke-width="1"><tspan dy="5.04201602935791" style="-webkit-tap-highlight-color: rgba(0, 0, 0, 0);">开始</tspan></text><path fill="#ffffff" stroke="#000000" d="M10,18.06722640991211L0,36.13445281982422L387.03179931640625,36.13445281982422L407.03179931640625,0L20,0L10,18.06722640991211" stroke-width="2" id="openfile" class="flowchart" style="-webkit-tap-highlight-color: rgba(0, 0, 0, 0);" transform="matrix(1,0,0,1,28.9849,212.5641)"></path><text x="30" y="18.06722640991211" text-anchor="start" font="10px &quot;Arial&quot;" stroke="none" fill="#000000" style="-webkit-tap-highlight-color: rgba(0, 0, 0, 0); text-anchor: start; font: 15px Arial;" id="openfilet" class="flowchartt" font-size="15px" transform="matrix(1,0,0,1,28.9849,212.5641)" stroke-width="1"><tspan dy="5.04201602935791" style="-webkit-tap-highlight-color: rgba(0, 0, 0, 0);">打开并读入目标方形图形的数据（迷宫数据）到列表</tspan></text><path fill="#ffffff" stroke="#000000" d="M10,18.06722640991211L0,36.13445281982422L177.10247802734375,36.13445281982422L197.10247802734375,0L20,0L10,18.06722640991211" stroke-width="2" id="findstartandend" class="flowchart" style="-webkit-tap-highlight-color: rgba(0, 0, 0, 0);" transform="matrix(1,0,0,1,133.9495,361.9134)"></path><text x="30" y="18.06722640991211" text-anchor="start" font="10px &quot;Arial&quot;" stroke="none" fill="#000000" style="-webkit-tap-highlight-color: rgba(0, 0, 0, 0); text-anchor: start; font: 15px Arial;" id="findstartandendt" class="flowchartt" font-size="15px" transform="matrix(1,0,0,1,133.9495,361.9134)" stroke-width="1"><tspan dy="5.04201602935791" style="-webkit-tap-highlight-color: rgba(0, 0, 0, 0);">查找起点和终点位置</tspan></text><rect x="0" y="0" width="457.00152587890625" height="36.13445281982422" r="0" rx="0" ry="0" fill="#ffffff" stroke="#000000" style="-webkit-tap-highlight-color: rgba(0, 0, 0, 0);" stroke-width="2" class="flowchart" id="pre" transform="matrix(1,0,0,1,4,511.2627)"></rect><text x="10" y="18.06722640991211" text-anchor="start" font="10px &quot;Arial&quot;" stroke="none" fill="#000000" style="-webkit-tap-highlight-color: rgba(0, 0, 0, 0); text-anchor: start; font: 15px Arial;" id="pret" class="flowchartt" font-size="15px" transform="matrix(1,0,0,1,4,511.2627)" stroke-width="1"><tspan dy="5.04201602935791" style="-webkit-tap-highlight-color: rgba(0, 0, 0, 0);">初始化用于记录某点的父亲节点、记录路径、记录访问状态的列表</tspan></text><rect x="0" y="0" width="171.08901977539062" height="36.13445281982422" r="0" rx="0" ry="0" fill="#ffffff" stroke="#000000" style="-webkit-tap-highlight-color: rgba(0, 0, 0, 0);" stroke-width="2" class="flowchart" id="dfs" transform="matrix(1,0,0,1,146.9563,660.612)"></rect><text x="10" y="18.06722640991211" text-anchor="start" font="10px &quot;Arial&quot;" stroke="none" fill="#000000" style="-webkit-tap-highlight-color: rgba(0, 0, 0, 0); text-anchor: start; font: 15px Arial;" id="dfst" class="flowchartt" font-size="15px" transform="matrix(1,0,0,1,146.9563,660.612)" stroke-width="1"><tspan dy="5.04201602935791" style="-webkit-tap-highlight-color: rgba(0, 0, 0, 0);">调用深度优先搜索模块</tspan></text><rect x="0" y="0" width="324.38458251953125" height="36.13445281982422" r="0" rx="0" ry="0" fill="#ffffff" stroke="#000000" style="-webkit-tap-highlight-color: rgba(0, 0, 0, 0);" stroke-width="2" class="flowchart" id="if2" transform="matrix(1,0,0,1,70.3085,809.9612)"></rect><text x="10" y="18.06722640991211" text-anchor="start" font="10px &quot;Arial&quot;" stroke="none" fill="#000000" style="-webkit-tap-highlight-color: rgba(0, 0, 0, 0); text-anchor: start; font: 15px Arial;" id="if2t" class="flowchartt" font-size="15px" transform="matrix(1,0,0,1,70.3085,809.9612)" stroke-width="1"><tspan dy="5.04201602935791" style="-webkit-tap-highlight-color: rgba(0, 0, 0, 0);">分别判断当前点A的4个方向的点是否可被访问</tspan></text><path fill="#ffffff" stroke="#000000" d="M77.28205490112305,38.64102745056152L0,77.28205490112305L154.5641098022461,154.5641098022461L309.1282196044922,77.28205490112305L154.5641098022461,0L0,77.28205490112305" stroke-width="2" id="if3" class="flowchart" style="-webkit-tap-highlight-color: rgba(0, 0, 0, 0);" transform="matrix(1,0,0,1,77.9367,900.0957)"></path><text x="82.28205490112305" y="77.28205490112305" text-anchor="start" font="10px &quot;Arial&quot;" stroke="none" fill="#000000" style="-webkit-tap-highlight-color: rgba(0, 0, 0, 0); text-anchor: start; font: 15px Arial;" id="if3t" class="flowchartt" font-size="15px" transform="matrix(1,0,0,1,77.9367,900.0957)" stroke-width="1"><tspan dy="5.042015075683594" style="-webkit-tap-highlight-color: rgba(0, 0, 0, 0);">某方向点点B是否可被访问</tspan></text><rect x="0" y="0" width="435.9707946777344" height="36.13445281982422" r="0" rx="0" ry="0" fill="#ffffff" stroke="#000000" style="-webkit-tap-highlight-color: rgba(0, 0, 0, 0);" stroke-width="2" class="flowchart" id="setvisited2" transform="matrix(1,0,0,1,14.5154,1167.8746)"></rect><text x="10" y="18.06722640991211" text-anchor="start" font="10px &quot;Arial&quot;" stroke="none" fill="#000000" style="-webkit-tap-highlight-color: rgba(0, 0, 0, 0); text-anchor: start; font: 15px Arial;" id="setvisited2t" class="flowchartt" font-size="15px" transform="matrix(1,0,0,1,14.5154,1167.8746)" stroke-width="1"><tspan dy="5.04201602935791" style="-webkit-tap-highlight-color: rgba(0, 0, 0, 0);">设置该方向点B被访问并将点B入栈，设置点B的父亲节点为点A</tspan></text><path fill="#ffffff" stroke="#000000" d="M56.28401470184326,28.14200735092163L0,56.28401470184326L112.56802940368652,112.56802940368652L225.13605880737305,56.28401470184326L112.56802940368652,0L0,56.28401470184326" stroke-width="2" id="endornot" class="flowchart" style="-webkit-tap-highlight-color: rgba(0, 0, 0, 0);" transform="matrix(1,0,0,1,119.9327,1279.0071)"></path><text x="61.28401470184326" y="56.28401470184326" text-anchor="start" font="10px &quot;Arial&quot;" stroke="none" fill="#000000" style="-webkit-tap-highlight-color: rgba(0, 0, 0, 0); text-anchor: start; font: 15px Arial;" id="endornott" class="flowchartt" font-size="15px" transform="matrix(1,0,0,1,119.9327,1279.0071)" stroke-width="1"><tspan dy="5.042014122009277" style="-webkit-tap-highlight-color: rgba(0, 0, 0, 0);">判断是否到达终点</tspan></text><rect x="0" y="0" width="296.2231140136719" height="36.13445281982422" r="0" rx="0" ry="0" fill="#ffffff" stroke="#000000" style="-webkit-tap-highlight-color: rgba(0, 0, 0, 0);" stroke-width="2" class="flowchart" id="back" transform="matrix(1,0,0,1,84.3892,1504.79)"></rect><text x="10" y="18.06722640991211" text-anchor="start" font="10px &quot;Arial&quot;" stroke="none" fill="#000000" style="-webkit-tap-highlight-color: rgba(0, 0, 0, 0); text-anchor: start; font: 15px Arial;" id="backt" class="flowchartt" font-size="15px" transform="matrix(1,0,0,1,84.3892,1504.79)" stroke-width="1"><tspan dy="5.04201602935791" style="-webkit-tap-highlight-color: rgba(0, 0, 0, 0);">从终点出发回溯路径上的点,生成关键路径</tspan></text><path fill="#ffffff" stroke="#000000" d="M10,18.06722640991211L0,36.13445281982422L132.11761474609375,36.13445281982422L152.11761474609375,0L20,0L10,18.06722640991211" stroke-width="2" id="print" class="flowchart" style="-webkit-tap-highlight-color: rgba(0, 0, 0, 0);" transform="matrix(1,0,0,1,156.442,1654.1393)"></path><text x="30" y="18.06722640991211" text-anchor="start" font="10px &quot;Arial&quot;" stroke="none" fill="#000000" style="-webkit-tap-highlight-color: rgba(0, 0, 0, 0); text-anchor: start; font: 15px Arial;" id="printt" class="flowchartt" font-size="15px" transform="matrix(1,0,0,1,156.442,1654.1393)" stroke-width="1"><tspan dy="5.04201602935791" style="-webkit-tap-highlight-color: rgba(0, 0, 0, 0);">输出关键路径</tspan></text><rect x="0" y="0" width="82.1277084350586" height="36.13445281982422" r="20" rx="20" ry="20" fill="#ffffff" stroke="#000000" style="-webkit-tap-highlight-color: rgba(0, 0, 0, 0);" stroke-width="2" class="flowchart" id="end" transform="matrix(1,0,0,1,191.4369,1803.4885)"></rect><text x="10" y="18.06722640991211" text-anchor="start" font="10px &quot;Arial&quot;" stroke="none" fill="#000000" style="-webkit-tap-highlight-color: rgba(0, 0, 0, 0); text-anchor: start; font: 15px Arial;" id="endt" class="flowchartt" font-size="15px" transform="matrix(1,0,0,1,191.4369,1803.4885)" stroke-width="1"><tspan dy="5.04201602935791" style="-webkit-tap-highlight-color: rgba(0, 0, 0, 0);">程序结束</tspan></text><path fill="none" stroke="#000000" d="M232.50076293945312,99.34928131103516C232.50076293945312,99.34928131103516,232.50076293945312,191.63133069529067,232.50076293945312,209.56504927680126" stroke-width="2" marker-end="url(#raphael-marker-endblock33-obj8)" style="-webkit-tap-highlight-color: rgba(0, 0, 0, 0);"></path><path fill="none" stroke="#000000" d="M232.50076293945312,248.6985626220703C232.50076293945312,248.6985626220703,232.50076293945312,340.9806120063258,232.50076293945312,358.91433058783645" stroke-width="2" marker-end="url(#raphael-marker-endblock33-obj8)" style="-webkit-tap-highlight-color: rgba(0, 0, 0, 0);"></path><path fill="none" stroke="#000000" d="M232.50076293945312,398.04784393310547C232.50076293945312,398.04784393310547,232.50076293945312,490.329893317361,232.50076293945312,508.26361189887155" stroke-width="2" marker-end="url(#raphael-marker-endblock33-obj8)" style="-webkit-tap-highlight-color: rgba(0, 0, 0, 0);"></path><path fill="none" stroke="#000000" d="M232.50076293945312,547.3971252441406C232.50076293945312,547.3971252441406,232.50076293945312,639.6791746283961,232.50076293945312,657.6128932099068" stroke-width="2" marker-end="url(#raphael-marker-endblock33-obj8)" style="-webkit-tap-highlight-color: rgba(0, 0, 0, 0);"></path><path fill="none" stroke="#000000" d="M232.50076293945312,696.7464065551758C232.50076293945312,696.7464065551758,232.50076293945312,789.0284559394313,232.50076293945312,806.9621745209419" stroke-width="2" marker-end="url(#raphael-marker-endblock33-obj8)" style="-webkit-tap-highlight-color: rgba(0, 0, 0, 0);"></path><path fill="none" stroke="#000000" d="M232.50076293945312,846.0956878662109C232.50076293945312,846.0956878662109,232.50076293945312,885.7497878074646,232.50076293945312,897.0961269508116" stroke-width="2" marker-end="url(#raphael-marker-endblock33-obj8)" style="-webkit-tap-highlight-color: rgba(0, 0, 0, 0);"></path><path fill="none" stroke="#000000" d="M232.50076293945312,1054.659797668457C232.50076293945312,1054.659797668457,232.50076293945312,1146.9418470527125,232.50076293945312,1164.8755656342232" stroke-width="2" marker-end="url(#raphael-marker-endblock33-obj8)" style="-webkit-tap-highlight-color: rgba(0, 0, 0, 0);"></path><text x="237.50076293945312" y="1064.659797668457" text-anchor="start" font="10px &quot;Arial&quot;" stroke="none" fill="#000000" style="-webkit-tap-highlight-color: rgba(0, 0, 0, 0); text-anchor: start; font: 15px Arial;" font-size="15px" stroke-width="1"><tspan dy="5.042034149169922" style="-webkit-tap-highlight-color: rgba(0, 0, 0, 0);">yes</tspan></text><path fill="none" stroke="#000000" d="M232.50076293945312,1204.0090789794922C232.50076293945312,1204.0090789794922,232.50076293945312,1262.0076690169392,232.50076293945312,1275.99756329355" stroke-width="2" marker-end="url(#raphael-marker-endblock33-obj8)" style="-webkit-tap-highlight-color: rgba(0, 0, 0, 0);"></path><path fill="none" stroke="#000000" d="M232.50076293945312,1391.5751485824585C232.50076293945312,1391.5751485824585,232.50076293945312,1483.857197966714,232.50076293945312,1501.7909165482247" stroke-width="2" marker-end="url(#raphael-marker-endblock33-obj8)" style="-webkit-tap-highlight-color: rgba(0, 0, 0, 0);"></path><text x="237.50076293945312" y="1401.5751485824585" text-anchor="start" font="10px &quot;Arial&quot;" stroke="none" fill="#000000" style="-webkit-tap-highlight-color: rgba(0, 0, 0, 0); text-anchor: start; font: 15px Arial;" font-size="15px" stroke-width="1"><tspan dy="5.041979789733887" style="-webkit-tap-highlight-color: rgba(0, 0, 0, 0);">yes</tspan></text><path fill="none" stroke="#000000" d="M345.06879234313965,1335.2911338806152C345.06879234313965,1335.2911338806152,370.06879234313965,1335.2911338806152,370.06879234313965,1335.2911338806152C370.06879234313965,1335.2911338806152,370.06879234313965,635.6119537353516,370.06879234313965,635.6119537353516C370.06879234313965,635.6119537353516,232.50076293945312,635.6119537353516,232.50076293945312,635.6119537353516C232.50076293945312,635.6119537353516,232.50076293945312,650.9853982925415,232.50076293945312,657.6212015096098" stroke-width="2" marker-end="url(#raphael-marker-endblock33-obj8)" style="-webkit-tap-highlight-color: rgba(0, 0, 0, 0);"></path><text x="350.06879234313965" y="1325.2911338806152" text-anchor="start" font="10px &quot;Arial&quot;" stroke="none" fill="#000000" style="-webkit-tap-highlight-color: rgba(0, 0, 0, 0); text-anchor: start; font: 15px Arial;" font-size="15px" stroke-width="1"><tspan dy="5.041900634765625" style="-webkit-tap-highlight-color: rgba(0, 0, 0, 0);">no</tspan></text><path fill="none" stroke="#000000" d="M232.50076293945312,1540.9244298934937C232.50076293945312,1540.9244298934937,232.50076293945312,1633.2064792777492,232.50076293945312,1651.1401978592598" stroke-width="2" marker-end="url(#raphael-marker-endblock33-obj8)" style="-webkit-tap-highlight-color: rgba(0, 0, 0, 0);"></path><path fill="none" stroke="#000000" d="M232.50076293945312,1690.2737112045288C232.50076293945312,1690.2737112045288,232.50076293945312,1782.5557605887843,232.50076293945312,1800.489479170295" stroke-width="2" marker-end="url(#raphael-marker-endblock33-obj8)" style="-webkit-tap-highlight-color: rgba(0, 0, 0, 0);"></path></svg>