<?xml version="1.0" encoding="utf-8" standalone="no"?><!DOCTYPE svg PUBLIC "-//W3C//DTD SVG 20010904//EN" "http://www.w3.org/TR/2001/REC-SVG-20010904/DTD/svg10.dtd"><svg xmlns="http://www.w3.org/2000/svg" width="958" height="2626" xmlns:xlink="http://www.w3.org/1999/xlink"><source><![CDATA[Created with Raphaël 2.1.2开始打开并读入目标方形图形的数据（迷宫数据）到列表查找起点和终点位置初始化用于记录某点的父亲节点、记录路径、记录访问状态的列表调用广度优先搜索模块设置当前点被访问分别判断4个方向的点是否可被访问该方向点是否可被访问设置当前点被访问并记录当前点的来源判断是否到达终点从终点出发回溯路径上的点,生成关键路径输出关键路径程序结束将当前点入队列判断在经过对4个方向的判断后，是否队列为空获取队列中第一个点，并做出队列操作yesyesnoyesno]]></source><desc style="-webkit-tap-highlight-color: rgba(0, 0, 0, 0);">Created with Raphaël 2.1.2</desc><defs style="-webkit-tap-highlight-color: rgba(0, 0, 0, 0);"><path stroke-linecap="round" d="M5,0 0,2.5 5,5z" id="raphael-marker-block-obj5" style="-webkit-tap-highlight-color: rgba(0, 0, 0, 0);"></path><marker id="raphael-marker-endblock33-obj6" markerHeight="3" markerWidth="3" orient="auto" refX="1.5" refY="1.5" style="-webkit-tap-highlight-color: rgba(0, 0, 0, 0);"><use xlink:href="#raphael-marker-block-obj5" transform="rotate(180 1.5 1.5) scale(0.6,0.6)" stroke-width="1.6667" fill="black" stroke="none" style="-webkit-tap-highlight-color: rgba(0, 0, 0, 0);"></use></marker></defs><rect x="0" y="0" width="52.13780975341797" height="36.13445281982422" r="20" rx="20" ry="20" fill="#ffffff" stroke="#000000" style="-webkit-tap-highlight-color: rgba(0, 0, 0, 0);" stroke-width="2" class="flowchart" id="st" transform="matrix(1,0,0,1,231.7083,112.8214)"></rect><text x="10" y="18.06722640991211" text-anchor="start" font="10px &quot;Arial&quot;" stroke="none" fill="#000000" style="-webkit-tap-highlight-color: rgba(0, 0, 0, 0); text-anchor: start; font: 15px Arial;" id="stt" class="flowchartt" font-size="15px" transform="matrix(1,0,0,1,231.7083,112.8214)" stroke-width="1"><tspan dy="5.04201602935791" style="-webkit-tap-highlight-color: rgba(0, 0, 0, 0);">开始</tspan></text><path fill="#ffffff" stroke="#000000" d="M10,18.06722640991211L0,36.13445281982422L387.03179931640625,36.13445281982422L407.03179931640625,0L20,0L10,18.06722640991211" stroke-width="2" id="openfile" class="flowchart" style="-webkit-tap-highlight-color: rgba(0, 0, 0, 0);" transform="matrix(1,0,0,1,54.2613,311.7772)"></path><text x="30" y="18.06722640991211" text-anchor="start" font="10px &quot;Arial&quot;" stroke="none" fill="#000000" style="-webkit-tap-highlight-color: rgba(0, 0, 0, 0); text-anchor: start; font: 15px Arial;" id="openfilet" class="flowchartt" font-size="15px" transform="matrix(1,0,0,1,54.2613,311.7772)" stroke-width="1"><tspan dy="5.04201602935791" style="-webkit-tap-highlight-color: rgba(0, 0, 0, 0);">打开并读入目标方形图形的数据（迷宫数据）到列表</tspan></text><path fill="#ffffff" stroke="#000000" d="M10,18.06722640991211L0,36.13445281982422L177.10247802734375,36.13445281982422L197.10247802734375,0L20,0L10,18.06722640991211" stroke-width="2" id="findstartandend" class="flowchart" style="-webkit-tap-highlight-color: rgba(0, 0, 0, 0);" transform="matrix(1,0,0,1,159.226,510.733)"></path><text x="30" y="18.06722640991211" text-anchor="start" font="10px &quot;Arial&quot;" stroke="none" fill="#000000" style="-webkit-tap-highlight-color: rgba(0, 0, 0, 0); text-anchor: start; font: 15px Arial;" id="findstartandendt" class="flowchartt" font-size="15px" transform="matrix(1,0,0,1,159.226,510.733)" stroke-width="1"><tspan dy="5.04201602935791" style="-webkit-tap-highlight-color: rgba(0, 0, 0, 0);">查找起点和终点位置</tspan></text><rect x="0" y="0" width="457.00152587890625" height="36.13445281982422" r="0" rx="0" ry="0" fill="#ffffff" stroke="#000000" style="-webkit-tap-highlight-color: rgba(0, 0, 0, 0);" stroke-width="2" class="flowchart" id="pre" transform="matrix(1,0,0,1,29.2764,709.6889)"></rect><text x="10" y="18.06722640991211" text-anchor="start" font="10px &quot;Arial&quot;" stroke="none" fill="#000000" style="-webkit-tap-highlight-color: rgba(0, 0, 0, 0); text-anchor: start; font: 15px Arial;" id="pret" class="flowchartt" font-size="15px" transform="matrix(1,0,0,1,29.2764,709.6889)" stroke-width="1"><tspan dy="5.04201602935791" style="-webkit-tap-highlight-color: rgba(0, 0, 0, 0);">初始化用于记录某点的父亲节点、记录路径、记录访问状态的列表</tspan></text><rect x="0" y="0" width="171.08901977539062" height="36.13445281982422" r="0" rx="0" ry="0" fill="#ffffff" stroke="#000000" style="-webkit-tap-highlight-color: rgba(0, 0, 0, 0);" stroke-width="2" class="flowchart" id="bfs" transform="matrix(1,0,0,1,172.2327,908.6447)"></rect><text x="10" y="18.06722640991211" text-anchor="start" font="10px &quot;Arial&quot;" stroke="none" fill="#000000" style="-webkit-tap-highlight-color: rgba(0, 0, 0, 0); text-anchor: start; font: 15px Arial;" id="bfst" class="flowchartt" font-size="15px" transform="matrix(1,0,0,1,172.2327,908.6447)" stroke-width="1"><tspan dy="5.04201602935791" style="-webkit-tap-highlight-color: rgba(0, 0, 0, 0);">调用广度优先搜索模块</tspan></text><rect x="0" y="0" width="140.0907211303711" height="36.13445281982422" r="0" rx="0" ry="0" fill="#ffffff" stroke="#000000" style="-webkit-tap-highlight-color: rgba(0, 0, 0, 0);" stroke-width="2" class="flowchart" id="setvisited1" transform="matrix(1,0,0,1,187.7318,1107.6005)"></rect><text x="10" y="18.06722640991211" text-anchor="start" font="10px &quot;Arial&quot;" stroke="none" fill="#000000" style="-webkit-tap-highlight-color: rgba(0, 0, 0, 0); text-anchor: start; font: 15px Arial;" id="setvisited1t" class="flowchartt" font-size="15px" transform="matrix(1,0,0,1,187.7318,1107.6005)" stroke-width="1"><tspan dy="5.04201602935791" style="-webkit-tap-highlight-color: rgba(0, 0, 0, 0);">设置当前点被访问</tspan></text><rect x="0" y="0" width="254.40325927734375" height="36.13445281982422" r="0" rx="0" ry="0" fill="#ffffff" stroke="#000000" style="-webkit-tap-highlight-color: rgba(0, 0, 0, 0);" stroke-width="2" class="flowchart" id="if2" transform="matrix(1,0,0,1,130.5756,1306.5563)"></rect><text x="10" y="18.06722640991211" text-anchor="start" font="10px &quot;Arial&quot;" stroke="none" fill="#000000" style="-webkit-tap-highlight-color: rgba(0, 0, 0, 0); text-anchor: start; font: 15px Arial;" id="if2t" class="flowchartt" font-size="15px" transform="matrix(1,0,0,1,130.5756,1306.5563)" stroke-width="1"><tspan dy="5.04201602935791" style="-webkit-tap-highlight-color: rgba(0, 0, 0, 0);">分别判断4个方向的点是否可被访问</tspan></text><path fill="#ffffff" stroke="#000000" d="M67.90838241577148,33.95419120788574L0,67.90838241577148L135.81676483154297,135.81676483154297L271.63352966308594,67.90838241577148L135.81676483154297,0L0,67.90838241577148" stroke-width="2" id="if3" class="flowchart" style="-webkit-tap-highlight-color: rgba(0, 0, 0, 0);" transform="matrix(1,0,0,1,121.9604,1455.671)"></path><text x="72.90838241577148" y="67.90838241577148" text-anchor="start" font="10px &quot;Arial&quot;" stroke="none" fill="#000000" style="-webkit-tap-highlight-color: rgba(0, 0, 0, 0); text-anchor: start; font: 15px Arial;" id="if3t" class="flowchartt" font-size="15px" transform="matrix(1,0,0,1,121.9604,1455.671)" stroke-width="1"><tspan dy="5.0420074462890625" style="-webkit-tap-highlight-color: rgba(0, 0, 0, 0);">该方向点是否可被访问</tspan></text><rect x="0" y="0" width="276.0536804199219" height="36.13445281982422" r="0" rx="0" ry="0" fill="#ffffff" stroke="#000000" style="-webkit-tap-highlight-color: rgba(0, 0, 0, 0);" stroke-width="2" class="flowchart" id="setvisited2" transform="matrix(1,0,0,1,119.7504,1754.3091)"></rect><text x="10" y="18.06722640991211" text-anchor="start" font="10px &quot;Arial&quot;" stroke="none" fill="#000000" style="-webkit-tap-highlight-color: rgba(0, 0, 0, 0); text-anchor: start; font: 15px Arial;" id="setvisited2t" class="flowchartt" font-size="15px" transform="matrix(1,0,0,1,119.7504,1754.3091)" stroke-width="1"><tspan dy="5.04201602935791" style="-webkit-tap-highlight-color: rgba(0, 0, 0, 0);">设置当前点被访问并记录当前点的来源</tspan></text><path fill="#ffffff" stroke="#000000" d="M56.28401470184326,28.14200735092163L0,56.28401470184326L112.56802940368652,112.56802940368652L225.13605880737305,56.28401470184326L112.56802940368652,0L0,56.28401470184326" stroke-width="2" id="endornot" class="flowchart" style="-webkit-tap-highlight-color: rgba(0, 0, 0, 0);" transform="matrix(1,0,0,1,145.2092,1915.0482)"></path><text x="61.28401470184326" y="56.28401470184326" text-anchor="start" font="10px &quot;Arial&quot;" stroke="none" fill="#000000" style="-webkit-tap-highlight-color: rgba(0, 0, 0, 0); text-anchor: start; font: 15px Arial;" id="endornott" class="flowchartt" font-size="15px" transform="matrix(1,0,0,1,145.2092,1915.0482)" stroke-width="1"><tspan dy="5.042014122009277" style="-webkit-tap-highlight-color: rgba(0, 0, 0, 0);">判断是否到达终点</tspan></text><rect x="0" y="0" width="296.2231140136719" height="36.13445281982422" r="0" rx="0" ry="0" fill="#ffffff" stroke="#000000" style="-webkit-tap-highlight-color: rgba(0, 0, 0, 0);" stroke-width="2" class="flowchart" id="back" transform="matrix(1,0,0,1,109.6656,2190.4376)"></rect><text x="10" y="18.06722640991211" text-anchor="start" font="10px &quot;Arial&quot;" stroke="none" fill="#000000" style="-webkit-tap-highlight-color: rgba(0, 0, 0, 0); text-anchor: start; font: 15px Arial;" id="backt" class="flowchartt" font-size="15px" transform="matrix(1,0,0,1,109.6656,2190.4376)" stroke-width="1"><tspan dy="5.04201602935791" style="-webkit-tap-highlight-color: rgba(0, 0, 0, 0);">从终点出发回溯路径上的点,生成关键路径</tspan></text><path fill="#ffffff" stroke="#000000" d="M10,18.06722640991211L0,36.13445281982422L132.11761474609375,36.13445281982422L152.11761474609375,0L20,0L10,18.06722640991211" stroke-width="2" id="print" class="flowchart" style="-webkit-tap-highlight-color: rgba(0, 0, 0, 0);" transform="matrix(1,0,0,1,181.7184,2389.3934)"></path><text x="30" y="18.06722640991211" text-anchor="start" font="10px &quot;Arial&quot;" stroke="none" fill="#000000" style="-webkit-tap-highlight-color: rgba(0, 0, 0, 0); text-anchor: start; font: 15px Arial;" id="printt" class="flowchartt" font-size="15px" transform="matrix(1,0,0,1,181.7184,2389.3934)" stroke-width="1"><tspan dy="5.04201602935791" style="-webkit-tap-highlight-color: rgba(0, 0, 0, 0);">输出关键路径</tspan></text><rect x="0" y="0" width="82.1277084350586" height="36.13445281982422" r="20" rx="20" ry="20" fill="#ffffff" stroke="#000000" style="-webkit-tap-highlight-color: rgba(0, 0, 0, 0);" stroke-width="2" class="flowchart" id="end" transform="matrix(1,0,0,1,216.7133,2588.3492)"></rect><text x="10" y="18.06722640991211" text-anchor="start" font="10px &quot;Arial&quot;" stroke="none" fill="#000000" style="-webkit-tap-highlight-color: rgba(0, 0, 0, 0); text-anchor: start; font: 15px Arial;" id="endt" class="flowchartt" font-size="15px" transform="matrix(1,0,0,1,216.7133,2588.3492)" stroke-width="1"><tspan dy="5.04201602935791" style="-webkit-tap-highlight-color: rgba(0, 0, 0, 0);">程序结束</tspan></text><rect x="0" y="0" width="126.10416412353516" height="36.13445281982422" r="0" rx="0" ry="0" fill="#ffffff" stroke="#000000" style="-webkit-tap-highlight-color: rgba(0, 0, 0, 0);" stroke-width="2" class="flowchart" id="pushintoqueue" transform="matrix(1,0,0,1,615.0703,1953.265)"></rect><text x="10" y="18.06722640991211" text-anchor="start" font="10px &quot;Arial&quot;" stroke="none" fill="#000000" style="-webkit-tap-highlight-color: rgba(0, 0, 0, 0); text-anchor: start; font: 15px Arial;" id="pushintoqueuet" class="flowchartt" font-size="15px" transform="matrix(1,0,0,1,615.0703,1953.265)" stroke-width="1"><tspan dy="5.04201602935791" style="-webkit-tap-highlight-color: rgba(0, 0, 0, 0);">将当前点入队列</tspan></text><path fill="#ffffff" stroke="#000000" d="M126.88859939575195,63.44429969787598L0,126.88859939575195L253.7771987915039,253.7771987915039L507.5543975830078,126.88859939575195L253.7771987915039,0L0,126.88859939575195" stroke-width="2" id="if_queue_empty" class="flowchart" style="-webkit-tap-highlight-color: rgba(0, 0, 0, 0);" transform="matrix(1,0,0,1,424.3452,2043.3994)"></path><text x="131.88859939575195" y="126.88859939575195" text-anchor="start" font="10px &quot;Arial&quot;" stroke="none" fill="#000000" style="-webkit-tap-highlight-color: rgba(0, 0, 0, 0); text-anchor: start; font: 15px Arial;" id="if_queue_emptyt" class="flowchartt" font-size="15px" transform="matrix(1,0,0,1,424.3452,2043.3994)" stroke-width="1"><tspan dy="5.042011260986328" style="-webkit-tap-highlight-color: rgba(0, 0, 0, 0);">判断在经过对4个方向的判断后，是否队列为空</tspan></text><rect x="0" y="0" width="277.06207275390625" height="36.13445281982422" r="0" rx="0" ry="0" fill="#ffffff" stroke="#000000" style="-webkit-tap-highlight-color: rgba(0, 0, 0, 0);" stroke-width="2" class="flowchart" id="do" transform="matrix(1,0,0,1,539.5914,2459.998)"></rect><text x="10" y="18.06722640991211" text-anchor="start" font="10px &quot;Arial&quot;" stroke="none" fill="#000000" style="-webkit-tap-highlight-color: rgba(0, 0, 0, 0); text-anchor: start; font: 15px Arial;" id="dot" class="flowchartt" font-size="15px" transform="matrix(1,0,0,1,539.5914,2459.998)" stroke-width="1"><tspan dy="5.04201602935791" style="-webkit-tap-highlight-color: rgba(0, 0, 0, 0);">获取队列中第一个点，并做出队列操作</tspan></text><path fill="none" stroke="#000000" d="M257.7771987915039,148.95582580566406C257.7771987915039,148.95582580566406,257.7771987915039,286.59819773692834,257.7771987915039,308.776900245384" stroke-width="2" marker-end="url(#raphael-marker-endblock33-obj6)" style="-webkit-tap-highlight-color: rgba(0, 0, 0, 0);"></path><path fill="none" stroke="#000000" d="M257.7771987915039,347.9116516113281C257.7771987915039,347.9116516113281,257.7771987915039,485.5540235425924,257.7771987915039,507.7327260510481" stroke-width="2" marker-end="url(#raphael-marker-endblock33-obj6)" style="-webkit-tap-highlight-color: rgba(0, 0, 0, 0);"></path><path fill="none" stroke="#000000" d="M257.7771987915039,546.8674774169922C257.7771987915039,546.8674774169922,257.7771987915039,684.5098493482565,257.7771987915039,706.6885518567121" stroke-width="2" marker-end="url(#raphael-marker-endblock33-obj6)" style="-webkit-tap-highlight-color: rgba(0, 0, 0, 0);"></path><path fill="none" stroke="#000000" d="M257.7771987915039,745.8233032226562C257.7771987915039,745.8233032226562,257.7771987915039,883.4656751539205,257.7771987915039,905.6443776623762" stroke-width="2" marker-end="url(#raphael-marker-endblock33-obj6)" style="-webkit-tap-highlight-color: rgba(0, 0, 0, 0);"></path><path fill="none" stroke="#000000" d="M257.7771987915039,944.7791290283203C257.7771987915039,944.7791290283203,257.7771987915039,1082.4215009595846,257.7771987915039,1104.6002034680403" stroke-width="2" marker-end="url(#raphael-marker-endblock33-obj6)" style="-webkit-tap-highlight-color: rgba(0, 0, 0, 0);"></path><path fill="none" stroke="#000000" d="M257.7771987915039,1143.7349548339844C257.7771987915039,1143.7349548339844,257.7771987915039,1281.3773267652487,257.7771987915039,1303.5560292737043" stroke-width="2" marker-end="url(#raphael-marker-endblock33-obj6)" style="-webkit-tap-highlight-color: rgba(0, 0, 0, 0);"></path><path fill="none" stroke="#000000" d="M257.7771987915039,1342.6907806396484C257.7771987915039,1342.6907806396484,257.7771987915039,1434.7815968492923,257.7771987915039,1452.6781519525337" stroke-width="2" marker-end="url(#raphael-marker-endblock33-obj6)" style="-webkit-tap-highlight-color: rgba(0, 0, 0, 0);"></path><path fill="none" stroke="#000000" d="M257.7771987915039,1591.4877624511719C257.7771987915039,1591.4877624511719,257.7771987915039,1729.1301343824362,257.7771987915039,1751.3088368908918" stroke-width="2" marker-end="url(#raphael-marker-endblock33-obj6)" style="-webkit-tap-highlight-color: rgba(0, 0, 0, 0);"></path><text x="262.7771987915039" y="1601.4877624511719" text-anchor="start" font="10px &quot;Arial&quot;" stroke="none" fill="#000000" style="-webkit-tap-highlight-color: rgba(0, 0, 0, 0); text-anchor: start; font: 15px Arial;" font-size="15px" stroke-width="1"><tspan dy="5.041873931884766" style="-webkit-tap-highlight-color: rgba(0, 0, 0, 0);">yes</tspan></text><path fill="none" stroke="#000000" d="M257.7771987915039,1790.443588256836C257.7771987915039,1790.443588256836,257.7771987915039,1893.0558471643376,257.7771987915039,1912.0451274992708" stroke-width="2" marker-end="url(#raphael-marker-endblock33-obj6)" style="-webkit-tap-highlight-color: rgba(0, 0, 0, 0);"></path><path fill="none" stroke="#000000" d="M257.7771987915039,2027.6162023544312C257.7771987915039,2027.6162023544312,257.7771987915039,2165.2585742856954,257.7771987915039,2187.4372767941513" stroke-width="2" marker-end="url(#raphael-marker-endblock33-obj6)" style="-webkit-tap-highlight-color: rgba(0, 0, 0, 0);"></path><text x="262.7771987915039" y="2037.6162023544312" text-anchor="start" font="10px &quot;Arial&quot;" stroke="none" fill="#000000" style="-webkit-tap-highlight-color: rgba(0, 0, 0, 0); text-anchor: start; font: 15px Arial;" font-size="15px" stroke-width="1"><tspan dy="5.042017936706543" style="-webkit-tap-highlight-color: rgba(0, 0, 0, 0);">yes</tspan></text><path fill="none" stroke="#000000" d="M370.34522819519043,1971.332187652588C370.34522819519043,1971.332187652588,584.09344809705,1971.332187652588,612.06440656077,1971.332187652588" stroke-width="2" marker-end="url(#raphael-marker-endblock33-obj6)" style="-webkit-tap-highlight-color: rgba(0, 0, 0, 0);"></path><text x="375.34522819519043" y="1961.332187652588" text-anchor="start" font="10px &quot;Arial&quot;" stroke="none" fill="#000000" style="-webkit-tap-highlight-color: rgba(0, 0, 0, 0); text-anchor: start; font: 15px Arial;" font-size="15px" stroke-width="1"><tspan dy="5.042060852050781" style="-webkit-tap-highlight-color: rgba(0, 0, 0, 0);">no</tspan></text><path fill="none" stroke="#000000" d="M257.7771987915039,2226.572028160095C257.7771987915039,2226.572028160095,257.7771987915039,2364.2144000913595,257.7771987915039,2386.3931025998154" stroke-width="2" marker-end="url(#raphael-marker-endblock33-obj6)" style="-webkit-tap-highlight-color: rgba(0, 0, 0, 0);"></path><path fill="none" stroke="#000000" d="M257.7771987915039,2425.5278539657593C257.7771987915039,2425.5278539657593,257.7771987915039,2563.1702258970236,257.7771987915039,2585.3489284054795" stroke-width="2" marker-end="url(#raphael-marker-endblock33-obj6)" style="-webkit-tap-highlight-color: rgba(0, 0, 0, 0);"></path><path fill="none" stroke="#000000" d="M678.1224269866943,1989.3994140625C678.1224269866943,1989.3994140625,678.1224269866943,2029.0535140037537,678.1224269866943,2040.3998531471007" stroke-width="2" marker-end="url(#raphael-marker-endblock33-obj6)" style="-webkit-tap-highlight-color: rgba(0, 0, 0, 0);"></path><path fill="none" stroke="#000000" d="M678.1224269866943,2297.176612854004C678.1224269866943,2297.176612854004,678.1224269866943,2434.818984785268,678.1224269866943,2456.997687293724" stroke-width="2" marker-end="url(#raphael-marker-endblock33-obj6)" style="-webkit-tap-highlight-color: rgba(0, 0, 0, 0);"></path><text x="683.1224269866943" y="2307.176612854004" text-anchor="start" font="10px &quot;Arial&quot;" stroke="none" fill="#000000" style="-webkit-tap-highlight-color: rgba(0, 0, 0, 0); text-anchor: start; font: 15px Arial;" font-size="15px" stroke-width="1"><tspan dy="5.042003631591797" style="-webkit-tap-highlight-color: rgba(0, 0, 0, 0);">yes</tspan></text><path fill="none" stroke="#000000" d="M931.8996257781982,2170.288013458252C931.8996257781982,2170.288013458252,956.8996257781982,2170.288013458252,956.8996257781982,2170.288013458252C956.8996257781982,2170.288013458252,956.8996257781982,883.6446762084961,956.8996257781982,883.6446762084961C956.8996257781982,883.6446762084961,257.7771987915039,883.6446762084961,257.7771987915039,883.6446762084961C257.7771987915039,883.6446762084961,257.7771987915039,899.018120765686,257.7771987915039,905.6539239827543" stroke-width="2" marker-end="url(#raphael-marker-endblock33-obj6)" style="-webkit-tap-highlight-color: rgba(0, 0, 0, 0);"></path><text x="936.8996257781982" y="2160.288013458252" text-anchor="start" font="10px &quot;Arial&quot;" stroke="none" fill="#000000" style="-webkit-tap-highlight-color: rgba(0, 0, 0, 0); text-anchor: start; font: 15px Arial;" font-size="15px" stroke-width="1"><tspan dy="5.041831970214844" style="-webkit-tap-highlight-color: rgba(0, 0, 0, 0);">no</tspan></text><path fill="none" stroke="#000000" d="M678.1224269866943,2496.132438659668C678.1224269866943,2496.132438659668,678.1224269866943,883.6446762084961,678.1224269866943,883.6446762084961C678.1224269866943,883.6446762084961,257.7771987915039,883.6446762084961,257.7771987915039,883.6446762084961C257.7771987915039,883.6446762084961,257.7771987915039,899.018120765686,257.7771987915039,905.6539239827543" stroke-width="2" marker-end="url(#raphael-marker-endblock33-obj6)" style="-webkit-tap-highlight-color: rgba(0, 0, 0, 0);"></path></svg>