<?xml version="1.0" encoding="utf-8" standalone="no"?><!DOCTYPE svg PUBLIC "-//W3C//DTD SVG 20010904//EN" "http://www.w3.org/TR/2001/REC-SVG-20010904/DTD/svg10.dtd"><svg xmlns="http://www.w3.org/2000/svg" width="1851" height="2776" xmlns:xlink="http://www.w3.org/1999/xlink"><source><![CDATA[Created with Raphaël 2.1.2开始预处理部分数据并存储，以加快底层的计算打开并读入15puzzle问题题目文件将15puzzle问题题目解析为列表将问题列表和目标结果列表解析为64位整数表示的状态调用计时器调用A*算法模块将起点放入“开启列表”探索当前点A的4个方向，查找可能通过的节点读取预处理数据将可通过的节点加入“开启列表”，将节点A存为其父亲，为该节点计算f(x)等将点A从“开启列表”移除，加入到“关闭列表”是否已经找到目标节点递归输出每一步的结果调用计时器程序结束在开启列表中寻找估价函数值最低的节点B，将其从“开启列表”删除，加入到“关闭列表”探索当前点B的4个方向，查找可能通过的节点可通过的节点是否已经在“开启列表”更新该“开启列表”内的g(x)值将可通过的节点加入“开启列表”，将节点B存为其父亲，为该节点计算f(x)等yesnoyesno]]></source><desc style="-webkit-tap-highlight-color: rgba(0, 0, 0, 0);">Created with Raphaël 2.1.2</desc><defs style="-webkit-tap-highlight-color: rgba(0, 0, 0, 0);"><path stroke-linecap="round" d="M5,0 0,2.5 5,5z" id="raphael-marker-block-obj9" style="-webkit-tap-highlight-color: rgba(0, 0, 0, 0);"></path><marker id="raphael-marker-endblock33-obj10" markerHeight="3" markerWidth="3" orient="auto" refX="1.5" refY="1.5" style="-webkit-tap-highlight-color: rgba(0, 0, 0, 0);"><use xlink:href="#raphael-marker-block-obj9" transform="rotate(180 1.5 1.5) scale(0.6,0.6)" stroke-width="1.6667" fill="black" stroke="none" style="-webkit-tap-highlight-color: rgba(0, 0, 0, 0);"></use></marker></defs><rect x="0" y="0" width="52.13780975341797" height="36.13445281982422" r="20" rx="20" ry="20" fill="#ffffff" stroke="#000000" style="-webkit-tap-highlight-color: rgba(0, 0, 0, 0);" stroke-width="2" class="flowchart" id="st" transform="matrix(1,0,0,1,273.3563,85.2927)"></rect><text x="10" y="18.06722640991211" text-anchor="start" font="10px &quot;Arial&quot;" stroke="none" fill="#000000" style="-webkit-tap-highlight-color: rgba(0, 0, 0, 0); text-anchor: start; font: 15px Arial;" id="stt" class="flowchartt" font-size="15px" transform="matrix(1,0,0,1,273.3563,85.2927)" stroke-width="1"><tspan dy="5.04201602935791" style="-webkit-tap-highlight-color: rgba(0, 0, 0, 0);">开始</tspan></text><rect x="0" y="0" width="307.052001953125" height="36.13445281982422" r="0" rx="0" ry="0" fill="#ffffff" stroke="#000000" style="-webkit-tap-highlight-color: rgba(0, 0, 0, 0);" stroke-width="2" class="flowchart" id="preparesomething" transform="matrix(1,0,0,1,145.8992,256.7198)"></rect><text x="10" y="18.06722640991211" text-anchor="start" font="10px &quot;Arial&quot;" stroke="none" fill="#000000" style="-webkit-tap-highlight-color: rgba(0, 0, 0, 0); text-anchor: start; font: 15px Arial;" id="preparesomethingt" class="flowchartt" font-size="15px" transform="matrix(1,0,0,1,145.8992,256.7198)" stroke-width="1"><tspan dy="5.04201602935791" style="-webkit-tap-highlight-color: rgba(0, 0, 0, 0);">预处理部分数据并存储，以加快底层的计算</tspan></text><path fill="#ffffff" stroke="#000000" d="M10,18.06722640991211L0,36.13445281982422L267.11607360839844,36.13445281982422L287.11607360839844,0L20,0L10,18.06722640991211" stroke-width="2" id="openfile1" class="flowchart" style="-webkit-tap-highlight-color: rgba(0, 0, 0, 0);" transform="matrix(1,0,0,1,155.8672,428.1469)"></path><text x="30" y="18.06722640991211" text-anchor="start" font="10px &quot;Arial&quot;" stroke="none" fill="#000000" style="-webkit-tap-highlight-color: rgba(0, 0, 0, 0); text-anchor: start; font: 15px Arial;" id="openfile1t" class="flowchartt" font-size="15px" transform="matrix(1,0,0,1,155.8672,428.1469)" stroke-width="1"><tspan dy="5.04201602935791" style="-webkit-tap-highlight-color: rgba(0, 0, 0, 0);">打开并读入15puzzle问题题目文件</tspan></text><path fill="#ffffff" stroke="#000000" d="M10,18.06722640991211L0,36.13445281982422L252.12112426757812,36.13445281982422L272.1211242675781,0L20,0L10,18.06722640991211" stroke-width="2" id="translate1" class="flowchart" style="-webkit-tap-highlight-color: rgba(0, 0, 0, 0);" transform="matrix(1,0,0,1,163.3647,599.574)"></path><text x="30" y="18.06722640991211" text-anchor="start" font="10px &quot;Arial&quot;" stroke="none" fill="#000000" style="-webkit-tap-highlight-color: rgba(0, 0, 0, 0); text-anchor: start; font: 15px Arial;" id="translate1t" class="flowchartt" font-size="15px" transform="matrix(1,0,0,1,163.3647,599.574)" stroke-width="1"><tspan dy="5.04201602935791" style="-webkit-tap-highlight-color: rgba(0, 0, 0, 0);">将15puzzle问题题目解析为列表</tspan></text><path fill="#ffffff" stroke="#000000" d="M10,18.06722640991211L0,36.13445281982422L403.71075439453125,36.13445281982422L423.71075439453125,0L20,0L10,18.06722640991211" stroke-width="2" id="translate2" class="flowchart" style="-webkit-tap-highlight-color: rgba(0, 0, 0, 0);" transform="matrix(1,0,0,1,87.5699,771.0011)"></path><text x="30" y="18.06722640991211" text-anchor="start" font="10px &quot;Arial&quot;" stroke="none" fill="#000000" style="-webkit-tap-highlight-color: rgba(0, 0, 0, 0); text-anchor: start; font: 15px Arial;" id="translate2t" class="flowchartt" font-size="15px" transform="matrix(1,0,0,1,87.5699,771.0011)" stroke-width="1"><tspan dy="5.04201602935791" style="-webkit-tap-highlight-color: rgba(0, 0, 0, 0);">将问题列表和目标结果列表解析为64位整数表示的状态</tspan></text><rect x="0" y="0" width="97.12266540527344" height="36.13445281982422" r="0" rx="0" ry="0" fill="#ffffff" stroke="#000000" style="-webkit-tap-highlight-color: rgba(0, 0, 0, 0);" stroke-width="2" class="flowchart" id="timer" transform="matrix(1,0,0,1,250.8639,942.4283)"></rect><text x="10" y="18.06722640991211" text-anchor="start" font="10px &quot;Arial&quot;" stroke="none" fill="#000000" style="-webkit-tap-highlight-color: rgba(0, 0, 0, 0); text-anchor: start; font: 15px Arial;" id="timert" class="flowchartt" font-size="15px" transform="matrix(1,0,0,1,250.8639,942.4283)" stroke-width="1"><tspan dy="5.04201602935791" style="-webkit-tap-highlight-color: rgba(0, 0, 0, 0);">调用计时器</tspan></text><rect x="0" y="0" width="126.94615936279297" height="36.13445281982422" r="0" rx="0" ry="0" fill="#ffffff" stroke="#000000" style="-webkit-tap-highlight-color: rgba(0, 0, 0, 0);" stroke-width="2" class="flowchart" id="A_star" transform="matrix(1,0,0,1,235.9522,1113.8554)"></rect><text x="10" y="18.06722640991211" text-anchor="start" font="10px &quot;Arial&quot;" stroke="none" fill="#000000" style="-webkit-tap-highlight-color: rgba(0, 0, 0, 0); text-anchor: start; font: 15px Arial;" id="A_start" class="flowchartt" font-size="15px" transform="matrix(1,0,0,1,235.9522,1113.8554)" stroke-width="1"><tspan dy="5.04201602935791" style="-webkit-tap-highlight-color: rgba(0, 0, 0, 0);">调用A*算法模块</tspan></text><rect x="0" y="0" width="165.9984130859375" height="36.13445281982422" r="0" rx="0" ry="0" fill="#ffffff" stroke="#000000" style="-webkit-tap-highlight-color: rgba(0, 0, 0, 0);" stroke-width="2" class="flowchart" id="A_star1" transform="matrix(1,0,0,1,216.426,1285.2825)"></rect><text x="10" y="18.06722640991211" text-anchor="start" font="10px &quot;Arial&quot;" stroke="none" fill="#000000" style="-webkit-tap-highlight-color: rgba(0, 0, 0, 0); text-anchor: start; font: 15px Arial;" id="A_star1t" class="flowchartt" font-size="15px" transform="matrix(1,0,0,1,216.426,1285.2825)" stroke-width="1"><tspan dy="5.04201602935791" style="-webkit-tap-highlight-color: rgba(0, 0, 0, 0);">将起点放入“开启列表”</tspan></text><rect x="0" y="0" width="324.38458251953125" height="36.13445281982422" r="0" rx="0" ry="0" fill="#ffffff" stroke="#000000" style="-webkit-tap-highlight-color: rgba(0, 0, 0, 0);" stroke-width="2" class="flowchart" id="A_star_search" transform="matrix(1,0,0,1,137.2329,1456.7096)"></rect><text x="10" y="18.06722640991211" text-anchor="start" font="10px &quot;Arial&quot;" stroke="none" fill="#000000" style="-webkit-tap-highlight-color: rgba(0, 0, 0, 0); text-anchor: start; font: 15px Arial;" id="A_star_searcht" class="flowchartt" font-size="15px" transform="matrix(1,0,0,1,137.2329,1456.7096)" stroke-width="1"><tspan dy="5.04201602935791" style="-webkit-tap-highlight-color: rgba(0, 0, 0, 0);">探索当前点A的4个方向，查找可能通过的节点</tspan></text><path fill="#ffffff" stroke="#000000" d="M10,18.06722640991211L0,36.13445281982422L147.1125717163086,36.13445281982422L167.1125717163086,0L20,0L10,18.06722640991211" stroke-width="2" id="readpre" class="flowchart" style="-webkit-tap-highlight-color: rgba(0, 0, 0, 0);" transform="matrix(1,0,0,1,215.8689,1628.1367)"></path><text x="30" y="18.06722640991211" text-anchor="start" font="10px &quot;Arial&quot;" stroke="none" fill="#000000" style="-webkit-tap-highlight-color: rgba(0, 0, 0, 0); text-anchor: start; font: 15px Arial;" id="readpret" class="flowchartt" font-size="15px" transform="matrix(1,0,0,1,215.8689,1628.1367)" stroke-width="1"><tspan dy="5.04201602935791" style="-webkit-tap-highlight-color: rgba(0, 0, 0, 0);">读取预处理数据</tspan></text><rect x="0" y="0" width="513.6351928710938" height="36.13445281982422" r="0" rx="0" ry="0" fill="#ffffff" stroke="#000000" style="-webkit-tap-highlight-color: rgba(0, 0, 0, 0);" stroke-width="2" class="flowchart" id="A_star_append" transform="matrix(1,0,0,1,42.6076,1799.5639)"></rect><text x="10" y="18.06722640991211" text-anchor="start" font="10px &quot;Arial&quot;" stroke="none" fill="#000000" style="-webkit-tap-highlight-color: rgba(0, 0, 0, 0); text-anchor: start; font: 15px Arial;" id="A_star_appendt" class="flowchartt" font-size="15px" transform="matrix(1,0,0,1,42.6076,1799.5639)" stroke-width="1"><tspan dy="5.04201602935791" style="-webkit-tap-highlight-color: rgba(0, 0, 0, 0);">将可通过的节点加入“开启列表”，将节点A存为其父亲，为该节点计算f(x)等</tspan></text><rect x="0" y="0" width="305.9464111328125" height="36.13445281982422" r="0" rx="0" ry="0" fill="#ffffff" stroke="#000000" style="-webkit-tap-highlight-color: rgba(0, 0, 0, 0);" stroke-width="2" class="flowchart" id="A_star_del" transform="matrix(1,0,0,1,146.452,1970.991)"></rect><text x="10" y="18.06722640991211" text-anchor="start" font="10px &quot;Arial&quot;" stroke="none" fill="#000000" style="-webkit-tap-highlight-color: rgba(0, 0, 0, 0); text-anchor: start; font: 15px Arial;" id="A_star_delt" class="flowchartt" font-size="15px" transform="matrix(1,0,0,1,146.452,1970.991)" stroke-width="1"><tspan dy="5.04201602935791" style="-webkit-tap-highlight-color: rgba(0, 0, 0, 0);">将点A从“开启列表”移除，加入到“关闭列表”</tspan></text><path fill="#ffffff" stroke="#000000" d="M67.90838241577148,33.95419120788574L0,67.90838241577148L135.81676483154297,135.81676483154297L271.63352966308594,67.90838241577148L135.81676483154297,0L0,67.90838241577148" stroke-width="2" id="if" class="flowchart" style="-webkit-tap-highlight-color: rgba(0, 0, 0, 0);" transform="matrix(1,0,0,1,163.6085,2092.577)"></path><text x="72.90838241577148" y="67.90838241577148" text-anchor="start" font="10px &quot;Arial&quot;" stroke="none" fill="#000000" style="-webkit-tap-highlight-color: rgba(0, 0, 0, 0); text-anchor: start; font: 15px Arial;" id="ift" class="flowchartt" font-size="15px" transform="matrix(1,0,0,1,163.6085,2092.577)" stroke-width="1"><tspan dy="5.0420074462890625" style="-webkit-tap-highlight-color: rgba(0, 0, 0, 0);">是否已经找到目标节点</tspan></text><path fill="#ffffff" stroke="#000000" d="M10,18.06722640991211L0,36.13445281982422L192.09742736816406,36.13445281982422L212.09742736816406,0L20,0L10,18.06722640991211" stroke-width="2" id="A_star_outputresult" class="flowchart" style="-webkit-tap-highlight-color: rgba(0, 0, 0, 0);" transform="matrix(1,0,0,1,193.3765,2363.6864)"></path><text x="30" y="18.06722640991211" text-anchor="start" font="10px &quot;Arial&quot;" stroke="none" fill="#000000" style="-webkit-tap-highlight-color: rgba(0, 0, 0, 0); text-anchor: start; font: 15px Arial;" id="A_star_outputresultt" class="flowchartt" font-size="15px" transform="matrix(1,0,0,1,193.3765,2363.6864)" stroke-width="1"><tspan dy="5.04201602935791" style="-webkit-tap-highlight-color: rgba(0, 0, 0, 0);">递归输出每一步的结果</tspan></text><rect x="0" y="0" width="97.12266540527344" height="36.13445281982422" r="0" rx="0" ry="0" fill="#ffffff" stroke="#000000" style="-webkit-tap-highlight-color: rgba(0, 0, 0, 0);" stroke-width="2" class="flowchart" id="timer2" transform="matrix(1,0,0,1,250.8639,2535.1135)"></rect><text x="10" y="18.06722640991211" text-anchor="start" font="10px &quot;Arial&quot;" stroke="none" fill="#000000" style="-webkit-tap-highlight-color: rgba(0, 0, 0, 0); text-anchor: start; font: 15px Arial;" id="timer2t" class="flowchartt" font-size="15px" transform="matrix(1,0,0,1,250.8639,2535.1135)" stroke-width="1"><tspan dy="5.04201602935791" style="-webkit-tap-highlight-color: rgba(0, 0, 0, 0);">调用计时器</tspan></text><rect x="0" y="0" width="82.1277084350586" height="36.13445281982422" r="20" rx="20" ry="20" fill="#ffffff" stroke="#000000" style="-webkit-tap-highlight-color: rgba(0, 0, 0, 0);" stroke-width="2" class="flowchart" id="end" transform="matrix(1,0,0,1,258.3614,2706.5406)"></rect><text x="10" y="18.06722640991211" text-anchor="start" font="10px &quot;Arial&quot;" stroke="none" fill="#000000" style="-webkit-tap-highlight-color: rgba(0, 0, 0, 0); text-anchor: start; font: 15px Arial;" id="endt" class="flowchartt" font-size="15px" transform="matrix(1,0,0,1,258.3614,2706.5406)" stroke-width="1"><tspan dy="5.04201602935791" style="-webkit-tap-highlight-color: rgba(0, 0, 0, 0);">程序结束</tspan></text><rect x="0" y="0" width="590.8504638671875" height="36.13445281982422" r="0" rx="0" ry="0" fill="#ffffff" stroke="#000000" style="-webkit-tap-highlight-color: rgba(0, 0, 0, 0);" stroke-width="2" class="flowchart" id="A_star_low" transform="matrix(1,0,0,1,489.242,2142.4181)"></rect><text x="10" y="18.06722640991211" text-anchor="start" font="10px &quot;Arial&quot;" stroke="none" fill="#000000" style="-webkit-tap-highlight-color: rgba(0, 0, 0, 0); text-anchor: start; font: 15px Arial;" id="A_star_lowt" class="flowchartt" font-size="15px" transform="matrix(1,0,0,1,489.242,2142.4181)" stroke-width="1"><tspan dy="5.04201602935791" style="-webkit-tap-highlight-color: rgba(0, 0, 0, 0);">在开启列表中寻找估价函数值最低的节点B，将其从“开启列表”删除，加入到“关闭列表”</tspan></text><rect x="0" y="0" width="324.38458251953125" height="36.13445281982422" r="0" rx="0" ry="0" fill="#ffffff" stroke="#000000" style="-webkit-tap-highlight-color: rgba(0, 0, 0, 0);" stroke-width="2" class="flowchart" id="A_star_search2" transform="matrix(1,0,0,1,622.4749,2313.8452)"></rect><text x="10" y="18.06722640991211" text-anchor="start" font="10px &quot;Arial&quot;" stroke="none" fill="#000000" style="-webkit-tap-highlight-color: rgba(0, 0, 0, 0); text-anchor: start; font: 15px Arial;" id="A_star_search2t" class="flowchartt" font-size="15px" transform="matrix(1,0,0,1,622.4749,2313.8452)" stroke-width="1"><tspan dy="5.04201602935791" style="-webkit-tap-highlight-color: rgba(0, 0, 0, 0);">探索当前点B的4个方向，查找可能通过的节点</tspan></text><path fill="#ffffff" stroke="#000000" d="M99.35989379882812,49.67994689941406L0,99.35989379882812L198.71978759765625,198.71978759765625L397.4395751953125,99.35989379882812L198.71978759765625,0L0,99.35989379882812" stroke-width="2" id="if2" class="flowchart" style="-webkit-tap-highlight-color: rgba(0, 0, 0, 0);" transform="matrix(1,0,0,1,585.9474,2403.9797)"></path><text x="104.35989379882812" y="99.35989379882812" text-anchor="start" font="10px &quot;Arial&quot;" stroke="none" fill="#000000" style="-webkit-tap-highlight-color: rgba(0, 0, 0, 0); text-anchor: start; font: 15px Arial;" id="if2t" class="flowchartt" font-size="15px" transform="matrix(1,0,0,1,585.9474,2403.9797)" stroke-width="1"><tspan dy="5.042018890380859" style="-webkit-tap-highlight-color: rgba(0, 0, 0, 0);">可通过的节点是否已经在“开启列表”</tspan></text><rect x="0" y="0" width="207.90806579589844" height="36.13445281982422" r="0" rx="0" ry="0" fill="#ffffff" stroke="#000000" style="-webkit-tap-highlight-color: rgba(0, 0, 0, 0);" stroke-width="2" class="flowchart" id="A_star_update" transform="matrix(1,0,0,1,680.7132,2737.9921)"></rect><text x="10" y="18.06722640991211" text-anchor="start" font="10px &quot;Arial&quot;" stroke="none" fill="#000000" style="-webkit-tap-highlight-color: rgba(0, 0, 0, 0); text-anchor: start; font: 15px Arial;" id="A_star_updatet" class="flowchartt" font-size="15px" transform="matrix(1,0,0,1,680.7132,2737.9921)" stroke-width="1"><tspan dy="5.04201602935791" style="-webkit-tap-highlight-color: rgba(0, 0, 0, 0);">更新该“开启列表”内的g(x)值</tspan></text><rect x="0" y="0" width="513.6351928710938" height="36.13445281982422" r="0" rx="0" ry="0" fill="#ffffff" stroke="#000000" style="-webkit-tap-highlight-color: rgba(0, 0, 0, 0);" stroke-width="2" class="flowchart" id="A_star_append2" transform="matrix(1,0,0,1,1075.9947,2485.2724)"></rect><text x="10" y="18.06722640991211" text-anchor="start" font="10px &quot;Arial&quot;" stroke="none" fill="#000000" style="-webkit-tap-highlight-color: rgba(0, 0, 0, 0); text-anchor: start; font: 15px Arial;" id="A_star_append2t" class="flowchartt" font-size="15px" transform="matrix(1,0,0,1,1075.9947,2485.2724)" stroke-width="1"><tspan dy="5.04201602935791" style="-webkit-tap-highlight-color: rgba(0, 0, 0, 0);">将可通过的节点加入“开启列表”，将节点B存为其父亲，为该节点计算f(x)等</tspan></text><path fill="none" stroke="#000000" d="M299.42523193359375,121.42712020874023C299.42523193359375,121.42712020874023,299.42523193359375,233.80228541168094,299.42523193359375,253.7203444784131" stroke-width="2" marker-end="url(#raphael-marker-endblock33-obj10)" style="-webkit-tap-highlight-color: rgba(0, 0, 0, 0);"></path><path fill="none" stroke="#000000" d="M299.42523193359375,292.85424041748047C299.42523193359375,292.85424041748047,299.42523193359375,405.2294056204212,299.42523193359375,425.1474646871534" stroke-width="2" marker-end="url(#raphael-marker-endblock33-obj10)" style="-webkit-tap-highlight-color: rgba(0, 0, 0, 0);"></path><path fill="none" stroke="#000000" d="M299.42523193359375,464.2813606262207C299.42523193359375,464.2813606262207,299.42523193359375,576.6565258291614,299.42523193359375,596.5745848958936" stroke-width="2" marker-end="url(#raphael-marker-endblock33-obj10)" style="-webkit-tap-highlight-color: rgba(0, 0, 0, 0);"></path><path fill="none" stroke="#000000" d="M299.42523193359375,635.7084808349609C299.42523193359375,635.7084808349609,299.42523193359375,748.0836460379016,299.42523193359375,768.0017051046337" stroke-width="2" marker-end="url(#raphael-marker-endblock33-obj10)" style="-webkit-tap-highlight-color: rgba(0, 0, 0, 0);"></path><path fill="none" stroke="#000000" d="M299.42523193359375,807.1356010437012C299.42523193359375,807.1356010437012,299.42523193359375,919.5107662466419,299.42523193359375,939.4288253133741" stroke-width="2" marker-end="url(#raphael-marker-endblock33-obj10)" style="-webkit-tap-highlight-color: rgba(0, 0, 0, 0);"></path><path fill="none" stroke="#000000" d="M299.42523193359375,978.5627212524414C299.42523193359375,978.5627212524414,299.42523193359375,1090.937886455382,299.42523193359375,1110.8559455221143" stroke-width="2" marker-end="url(#raphael-marker-endblock33-obj10)" style="-webkit-tap-highlight-color: rgba(0, 0, 0, 0);"></path><path fill="none" stroke="#000000" d="M299.42523193359375,1149.9898414611816C299.42523193359375,1149.9898414611816,299.42523193359375,1262.3650066641223,299.42523193359375,1282.2830657308546" stroke-width="2" marker-end="url(#raphael-marker-endblock33-obj10)" style="-webkit-tap-highlight-color: rgba(0, 0, 0, 0);"></path><path fill="none" stroke="#000000" d="M299.42523193359375,1321.4169616699219C299.42523193359375,1321.4169616699219,299.42523193359375,1433.7921268728626,299.42523193359375,1453.7101859395948" stroke-width="2" marker-end="url(#raphael-marker-endblock33-obj10)" style="-webkit-tap-highlight-color: rgba(0, 0, 0, 0);"></path><path fill="none" stroke="#000000" d="M299.42523193359375,1492.844081878662C299.42523193359375,1492.844081878662,299.42523193359375,1605.2192470816028,299.42523193359375,1625.137306148335" stroke-width="2" marker-end="url(#raphael-marker-endblock33-obj10)" style="-webkit-tap-highlight-color: rgba(0, 0, 0, 0);"></path><path fill="none" stroke="#000000" d="M299.42523193359375,1664.2712020874023C299.42523193359375,1664.2712020874023,299.42523193359375,1776.646367290343,299.42523193359375,1796.564426357075" stroke-width="2" marker-end="url(#raphael-marker-endblock33-obj10)" style="-webkit-tap-highlight-color: rgba(0, 0, 0, 0);"></path><path fill="none" stroke="#000000" d="M299.42523193359375,1835.6983222961426C299.42523193359375,1835.6983222961426,299.42523193359375,1948.0734874990833,299.42523193359375,1967.9915465658155" stroke-width="2" marker-end="url(#raphael-marker-endblock33-obj10)" style="-webkit-tap-highlight-color: rgba(0, 0, 0, 0);"></path><path fill="none" stroke="#000000" d="M299.42523193359375,2007.1254425048828C299.42523193359375,2007.1254425048828,299.42523193359375,2074.4614870806727,299.42523193359375,2089.5857939678126" stroke-width="2" marker-end="url(#raphael-marker-endblock33-obj10)" style="-webkit-tap-highlight-color: rgba(0, 0, 0, 0);"></path><path fill="none" stroke="#000000" d="M299.42523193359375,2228.3937187194824C299.42523193359375,2228.3937187194824,299.42523193359375,2340.768883922423,299.42523193359375,2360.6869429891553" stroke-width="2" marker-end="url(#raphael-marker-endblock33-obj10)" style="-webkit-tap-highlight-color: rgba(0, 0, 0, 0);"></path><text x="304.42523193359375" y="2238.3937187194824" text-anchor="start" font="10px &quot;Arial&quot;" stroke="none" fill="#000000" style="-webkit-tap-highlight-color: rgba(0, 0, 0, 0); text-anchor: start; font: 15px Arial;" font-size="15px" stroke-width="1"><tspan dy="5.0418243408203125" style="-webkit-tap-highlight-color: rgba(0, 0, 0, 0);">yes</tspan></text><path fill="none" stroke="#000000" d="M435.2419967651367,2160.485336303711C435.2419967651367,2160.485336303711,474.8960967063904,2160.485336303711,486.2424358497374,2160.485336303711" stroke-width="2" marker-end="url(#raphael-marker-endblock33-obj10)" style="-webkit-tap-highlight-color: rgba(0, 0, 0, 0);"></path><text x="440.2419967651367" y="2150.485336303711" text-anchor="start" font="10px &quot;Arial&quot;" stroke="none" fill="#000000" style="-webkit-tap-highlight-color: rgba(0, 0, 0, 0); text-anchor: start; font: 15px Arial;" font-size="15px" stroke-width="1"><tspan dy="5.042133331298828" style="-webkit-tap-highlight-color: rgba(0, 0, 0, 0);">no</tspan></text><path fill="none" stroke="#000000" d="M299.42523193359375,2399.8208389282227C299.42523193359375,2399.8208389282227,299.42523193359375,2512.196004131163,299.42523193359375,2532.1140631978956" stroke-width="2" marker-end="url(#raphael-marker-endblock33-obj10)" style="-webkit-tap-highlight-color: rgba(0, 0, 0, 0);"></path><path fill="none" stroke="#000000" d="M299.42523193359375,2571.247959136963C299.42523193359375,2571.247959136963,299.42523193359375,2683.6231243399034,299.42523193359375,2703.5411834066354" stroke-width="2" marker-end="url(#raphael-marker-endblock33-obj10)" style="-webkit-tap-highlight-color: rgba(0, 0, 0, 0);"></path><path fill="none" stroke="#000000" d="M784.6672286987305,2178.552562713623C784.6672286987305,2178.552562713623,784.6672286987305,2290.9277279165635,784.6672286987305,2310.845786983296" stroke-width="2" marker-end="url(#raphael-marker-endblock33-obj10)" style="-webkit-tap-highlight-color: rgba(0, 0, 0, 0);"></path><path fill="none" stroke="#000000" d="M784.6672286987305,2349.9796829223633C784.6672286987305,2349.9796829223633,784.6672286987305,2389.633782863617,784.6672286987305,2400.980122006964" stroke-width="2" marker-end="url(#raphael-marker-endblock33-obj10)" style="-webkit-tap-highlight-color: rgba(0, 0, 0, 0);"></path><path fill="none" stroke="#000000" d="M784.6672286987305,2602.6994705200195C784.6672286987305,2602.6994705200195,784.6672286987305,2715.07463572296,784.6672286987305,2734.9926947896925" stroke-width="2" marker-end="url(#raphael-marker-endblock33-obj10)" style="-webkit-tap-highlight-color: rgba(0, 0, 0, 0);"></path><text x="789.6672286987305" y="2612.6994705200195" text-anchor="start" font="10px &quot;Arial&quot;" stroke="none" fill="#000000" style="-webkit-tap-highlight-color: rgba(0, 0, 0, 0); text-anchor: start; font: 15px Arial;" font-size="15px" stroke-width="1"><tspan dy="5.041912078857422" style="-webkit-tap-highlight-color: rgba(0, 0, 0, 0);">yes</tspan></text><path fill="none" stroke="#000000" d="M983.3870162963867,2503.3395767211914C983.3870162963867,2503.3395767211914,1057.0864220024014,2503.3395767211914,1072.9922507729377,2503.3395767211914" stroke-width="2" marker-end="url(#raphael-marker-endblock33-obj10)" style="-webkit-tap-highlight-color: rgba(0, 0, 0, 0);"></path><text x="988.3870162963867" y="2493.3395767211914" text-anchor="start" font="10px &quot;Arial&quot;" stroke="none" fill="#000000" style="-webkit-tap-highlight-color: rgba(0, 0, 0, 0); text-anchor: start; font: 15px Arial;" font-size="15px" stroke-width="1"><tspan dy="5.041881561279297" style="-webkit-tap-highlight-color: rgba(0, 0, 0, 0);">no</tspan></text><path fill="none" stroke="#000000" d="M784.6672286987305,2774.1265907287598C784.6672286987305,2774.1265907287598,784.6672286987305,2067.5769538879395,784.6672286987305,2067.5769538879395C784.6672286987305,2067.5769538879395,299.42523193359375,2067.5769538879395,299.42523193359375,2067.5769538879395C299.42523193359375,2067.5769538879395,299.42523193359375,2082.9503984451294,299.42523193359375,2089.5862016621977" stroke-width="2" marker-end="url(#raphael-marker-endblock33-obj10)" style="-webkit-tap-highlight-color: rgba(0, 0, 0, 0);"></path><path fill="none" stroke="#000000" d="M1332.8122482299805,2521.4068031311035C1332.8122482299805,2521.4068031311035,1332.8122482299805,2546.4068031311035,1332.8122482299805,2546.4068031311035C1332.8122482299805,2546.4068031311035,1849.5057563781738,2546.4068031311035,1849.5057563781738,2546.4068031311035C1849.5057563781738,2546.4068031311035,1849.5057563781738,2067.5769538879395,1849.5057563781738,2067.5769538879395C1849.5057563781738,2067.5769538879395,299.42523193359375,2067.5769538879395,299.42523193359375,2067.5769538879395C299.42523193359375,2067.5769538879395,299.42523193359375,2082.9503984451294,299.42523193359375,2089.5862016621977" stroke-width="2" marker-end="url(#raphael-marker-endblock33-obj10)" style="-webkit-tap-highlight-color: rgba(0, 0, 0, 0);"></path></svg>